<mxfile host="app.diagrams.net" modified="2021-03-19T01:35:11.385Z" agent="5.0 (Windows NT 10.0; Win64; x64) AppleWebKit/537.36 (KHTML, like Gecko) Chrome/89.0.4389.90 Safari/537.36" etag="ZssGovmU50X78c79DPSb" version="14.4.8" type="github">
  <diagram id="ICalyYtp_trLYpvtcrHX" name="ページ1">
    <mxGraphModel dx="1038" dy="548" grid="1" gridSize="10" guides="1" tooltips="1" connect="1" arrows="1" fold="1" page="1" pageScale="1" pageWidth="827" pageHeight="1169" math="0" shadow="0">
      <root>
        <mxCell id="0" />
        <mxCell id="1" parent="0" />
        <mxCell id="fsJKned1fW-X0qUgyeQ3-1" value="" style="shape=image;verticalLabelPosition=bottom;labelBackgroundColor=#ffffff;verticalAlign=top;aspect=fixed;imageAspect=0;image=data:image/png,iVBORw0KGgoAAAANSUhEUgAAAQcAAADJCAYAAAAuPvfXAAAeqElEQVR4Ae2deWwVR57H+WekXa2inRlpoom0I7QjJexOZoWyEQpDxAYWFlDMconDrIGYI+NgEm5CILA2JmFMdmA4JsQhhoDAhnHwgDmD7QRIHMDGBwYCCcTGBttgY2zjcA7Hb/UtU0/tdr+z2/i537ekVr+urqpX9alX3/7Vr+qpuwgDCZAACVgQ6GIRxygSIAESEIoDfwQkQAKWBCgOllgYSQIkQHHgb4AESMCSAMXBEgsjSYAEKA78DZAACVgSoDhYYmEkCZAAxYG/ARIgAUsCFAdLLIwkARJwVBw+LWyUxNw6WwfKYCABEuh4Ao6Kw4w9V+SVjy/aOlAGAwmQQMcTcFQcOr45rAEJkIBTBCgOTpFkOSTgMgIUB5d1KJtDAk4RcFQc6JB0qltYDgl0PAFHxYEOyY7vUNaABJwi4Kg4OFUplkMCJNDxBCgOHd8HrAEJhCUBikNYdgsrRQIdT8BRcaBDsuM7lDUgAacIOCoOdEg61S0shwQ6noCj4tDxzWENSIAEnCJAcXCKJMshAZcRoDi4rEPZHBJwigDFwSmSLIcEXEaA4uCyDmVzSMApAhQHp0iyHBJwGQGKg8s6lM0hAacIUBycIslySMBlBCgOLutQNocEnCJAcXCKJMshAZcRoDi4rEPZHBJwigDFwSmSLIcEXEaA4uCyDmVzSMApAhQHp0iyHBJwGQGKg8s6lM0hAacIUBycIslySMBlBCgOLutQNocEnCJAcXCKJMshAZcRoDi4rEPZHBJwigDFwSmSLIcEXEaA4uCyDmVzSMApAhQHp0iyHBJwGQGKg8s6lM0hAacIUBycIslySMBlBCgOLutQNocEnCJAcXCKJMshAZcRoDi4rEPZHBJwigDFwSmSLIcEXEbgiYrDxYYSwcFAAiQQ/gSeqDgsyX5FcDCQAAmEPwGKQ/j3EWtIAh1CgOLQIdj5pSQQ/gQoDuHfR6whCXQIgU4vDvX19RIdHS3fffddK4B5eXkycOBAwX03hvT0dNmwYYNq2r1792Tp0qVSUFAQclNv374ts2bNkjNnzkhDQ4OsXr1aLl68GHJ5zNj5CUSUOOTk5Mi7774rd+/etey5jIwMmT9/vty5c8fyvrdICFP37t2lS5culkefPn2kurraMvvNmzclNTVV+vXrp/L+/Oc/l1GjRsnhw4fl0aNHXvNMmzZNDWQkQNm4xqAONUAc5s2b5xHZ5uZmOXDggPztb38LtUjm6+QEIkocqqqqZNCgQZKfn2/ZbZs3b5aEhASvg9Iyk59IlBkXFycYfOZw/vx5GTp0qGzZskXKyspkxIgRcvbsWTlx4oSqZ1pammVdcnNzZebMmR6Ry8zMVAJjLt/qGhaVNxGziofoma0yq3IZ5z4CESUOeBKvWLFCFi9eLA8ePGjVm7gHYUhJSWkVb+cC5j5Mdasy8ZQfM2aMaAHAAMT0SE+DIBJ9+/b1WAe6HsgXExMjR44cUVG1tbUyZMgQrwPePLghDklJSbq4VmdMTY4dO9YqjheRSyCixAHdXFpaKv3795fy8vJWvX7r1i2ZMmWKZGdnt4q3cwFzH36PwsLCNsXgaT9nzhzP0//cuXMyceJEaWpqUmkhVhisRmG5f/++JCcnqykMxARpVq1aJevXrxdMT4zTgjZf+DjClzisXLlScJ+BBEDAEXHArscl2X38HpP+8lPBEUjaQHdSBuuQxFx69uzZUlRU1OoXUFFRIVFRUYJB6lTIysqSkSNHega8LhcWBYQB0wMdMCjN0w8IFSwPpIcQwMoYPny4TJ8+XZn6yDN+/HjlazD7DHS55rMvcdi+fbts3bpVZYH4oI7gxRCZBBwUh5bdj3oXpNV54vZ/FBxW98xx7SUO3roZAxWOQP3kxiCymoMb45DGW8CTPDY21tIXAEGbMGGCQJB0wKA0m/soXwtGZWWlzJ07V/kmYCGcPn1aWRGYfiBAHJDWWD98NtfRql36e2HhwFqBEMFJqoVC15HnyCLgiDgEikwLQKDpA0nny3LAUzWQJx/8D/BDwKx2KsAn0Lt3bzWYzWWa/Qu4v2zZsjaDEQPZvBzrzULwFm/+bpSpxQD3cI3vRsA0CAL0ww8/SHx8vNTU1Jiz8zqCCLhWHGAi4wceyLIkBquV8y/U30FdXZ0y/3v16qXqACvCGMziAH/H1KlT2/gmMHC15aDzexMBb/E6nz5DtMzioC0ETF+w1AvH6LZt23QWniOUQKcXB6t+gyWwYMGCgCwBOPkWLlyoDny2G7TTEMKEJzB8BHpFQpeN6QSmFXplAtfjxo1r86SGMxLtMK6seBMBxAcyrYAQaDFAfczX2Fg1adKkgCwu3R6e3UnAleKAJ/PLL78sJSW+/x6unXxYvcAeCLsBwrB27VolCFevXlXF4emPTVDaN4BI+DUmT57s2T+AlQvz8iqWLOHMNDotkdeXOPhbrUB7sVyrl0FxjamUXr5EHbEZC/st9JQCuyTRBobII+A6cbhy5Yry4GPJz5cl8PDhQ/VE79Gjhxw9etR2z2PQwpkHPwPESQfUAZaJcdkSgxL7LWAZXL9+XQkFNj7pgB2c8APA+jBPSeyIAwQH1gUGPOoKh+WMGTPUd2BD1ujRoxULWBPYmIV6Qhic9MXoNvIc/gRcIQ74EUMU1qxZI88//7z64WMQeQvwCWCbNAayeUnTWx5f8djdiOkDHKCohzlALF588UU5ePCg5xbqAPO9a9eusmnTJiVkEBIMxrFjx6qVE219eDLZtBxghUCk4FvQASKJJVNspNIsICJoC9JDwJzc+6G/l+fwJ+AKccCAxG7DRYsWqdUBiIW3AAdlYmKiEhA8te0GDGhsRIJfwdt/NlAfbFQ6dOiQz6+DeAwYMEB27NjhtaxQLQeIwMaNG9s4PSFAsCLMogY/CAQPXCFkDJFHwBXiEHndxhaTQPsToDi0P2N+Awl0SgJPVByw6zHQnY+dkiYrTQIuIvBExcFF3NgUEnA9AYqD67uYDSSB0AhQHELjxlwk4HoCFAfXdzEbSAKhEaA4hMaNuUjA9QQoDq7vYjaQBEIjQHEIjRtzkYDrCVAcXN/FbCAJhEaA4hAaN+YiAdcToDi4vovZQBIIjQDFITRuzEUCridAcXB9F7OBJBAaAYpDaNyYiwRcT4Di4PouZgNJIDQCFIfQuDEXCbieAMXB9V3MBpJAaAQoDqFxYy4ScD0BioPru5gNJIHQCDxRcfjjgXJZcaA8tJoyFwmQwBMl8MTEYcFn30mXmM3qwGcGEiCB8CbwRMThd0mHlSj85LV0wQGR6LX0SHiTYe1IIMIJtLs4/G5JizD87I2d8uqaCnl1dYX8w+SMFoFIokBE+O+PzQ9jAu0qDj21MMTtlFGf1Mn/bGyQmE8bZeT6WoFYKAuCAhHGPw9WLZIJtIs41DTelX+evU8N/p/G7ZQRH1+VMRuuS/SGBolW5+sqDvcgEEhb3XjXkX7Aeymjo6M9r7d3pNDHhaSmpsry5cvlwYMHThbLskggLAk4Lg4Y5E9P26UG/S+m7ZVhKVdlZGq9jNpwveWc+vi84boMTbkiSAOBQB4nBKK9xAHv2MRbr/EGagYSiAQCjooDBvcvHgtD1zlfyIhP6mXEJ9cen/HZ+hppIRDIa1cg2kscqqurZfDgwVJaWhoJvwu2kQTEMXHYW1onv4hvmSb8anauDF1/TYZ+XKfOQx6ffV3/avZjgYjfJSgrkAAh6N69u3Tp0sXvgXRIH2rIy8uTUaNGSVNTU6hFMB8JdCoCjojDntI6zxLlP83OlaiUOolKqQ36jLywILDciTJDCe1lOaxcuVK9qv7Ro0ehVIt5SKDTEXBEHH7yWpoa1L9NLJKBH9XKwHVX1XnA43Mw179NLPYIRCg020McmpubZfz48ZKdnR1KlZiHBDolAUfE4Q/7fpDp6d/LpvwfZezmOun35yvyn4Yj0GvkRRnTt30vKDPQAJM/MTFR7t27p6YOerWioaFBFi5cKJWVlZ6iApmKmJ2OyDNixAiB3wEBqxVr166V3bt3e8rlBxJwGwFHxMEIZXpmvfReUy3/sbYm6PNbmfXGogL+nJKSIsuWLVPpjZbD7du3JS4uzvYTPzMzU2bNmqXER1cqPz9fYmJiBALEQAJuJOC4OMTvuCa/W1UV0oG8wQazABjFAWVBOBYvXhzy3gRYIxAGCIQx3L17V2bOnCm5ubnGaH4mAdcQcFwcfp9RJy+uuCQvrrws//74HOj163+pDRosxGDIkCFSUVGh8prFAUuPw4YNk5qamqDLRgZMJUaPHi3l5W3/TQphgEBAKBhIwG0EHBeH2G1X5d/+r1J+6zkq5MMvq+RASfXjo0o+L6lWcS1pKjzpY7dfDZovdi0aLQOzONy8eVNiY2PbPPkD/SI4ITE1gYViDFi1gCCNGTNGzpw5Y7zFzyTgCgKOi8O49CvybHK5PJd8seW8/KLsL6lST248vfVxoKTKc1+nj0kL7umOsqKiogTzfx3M4oB4OBghEBCKYAL2NMyZM0c5NdPS0iQ5OVmV07t3b3nqqafkhRdeUMeKFSuES5zBkGXazkDAcXEYvaVaui4rk67vl3nO+4rbigPizOnGbA1OHIqLi2X+/PmtnupW4nDx4kX1n4jGxsag+gR7G3r27KmmJUlJSQKBKCgokGvXrsn9+/dVWZi2jBw5UsUFVTgTk0CYE3BcHIZvrpJfJl2QZ5ZeUOdfLr0ge4oueywGbTnsKb7sua/TI6/dYCUOdsv0lV8vl166dMlXMt4jgU5HwHFxiPr0kvws4Xv5qeHIshAHxOk0Oj3yMpAACYQHAcfFYUBqpfzdu2fl7xed85x3Fl5qYzkgzpzuv1JbVhzCAw1rQQKRTcBxcThUdlMScuokIadWEnJxrpP0E1dlT+kV2VOKc8uBOH1fp0deBhIggfAg4Lg4hEezWAsSIAG7BCgOdgkyPwm4lADFwaUdy2aRgF0CFAe7BJmfBFxKgOLg0o5ls0jALgGKg12CzE8CLiVAcXBpx7JZJGCXAMXBLkHmJwGXEqA4uLRj2SwSsEuA4mCXIPOTgEsJUBxc2rFsFgnYJUBxsEuQ+UnApQQoDi7tWDaLBOwSoDjYJcj8JOBSAhQHl3Ysm0UCdglQHOwSZH4ScCkBioNLO5bNIgG7BCgOdgkyPwm4lADFwaUdy2aRgF0CFAe7BJmfBFxKgOLg0o5ls0jALgFHxOHj70pk9ZkCdax6fLZ7vf67ErttY34SIAEbBBwRh2nffC5vHj0oTp9ttKtV1qysLNm1a1eruM5wsXHjRsGbvJcvXy54k5eTAS8GTkhIELwqkIEErAg4Jg4QBn/HZ+XnVB0+PlfsSVvW3Cg43in40hOny7GqsLc4/Njnzp0rR44c8STBC3Y/+ugjqa6ulunTpwteXRfOwfwqP7y9e8GCBbJ3717BeztDeVkvyhwwYIBHXB4+fCirVq2SwsJCJTwQIAYSsCLgqDjE5x1oNcDN16cb6lQdMi+eU+lw/9T1Wmm6d1eJgzm9VYW9xVVUVEjfvn3Vj16nuXv3rno6lpWVSUpKipw9e1bfCvisRWfdunVy48aNgPOFktAsDqj/e++9J0VFRcp6CPYt4aiDWRwQB9FZtmyZXL58WZUfSrmhtI95OhcBR8UBT3wM8IUnDilr4PPLZepaWwI/NDfIth++bSUgpQZx0Pl1+mBQZmZmSpcuXdocTz/9tHz11VfBFNUqLZ60p0+flgkTJki3bt3Um7YxaNsjmMXBie+wEgcI3pIlS6Sqyv6Li52oI8sITwKOiIN+4utzytli1dqHjx55LIQtF07Lsdoqz7UWAivLQZcTKDI8+WJjYyU1NbVVlubmZhk/frxkZ2e3itcXx44dU0/QBw8eqCgMpKlTp1pOPyASOTk5kpSUJEZxuHXrlucprMsN5Izv6t69exsxsxI4pEP6UIKVOIRSDvNEHgHHxAEDWh8QgeN11XKmoU4Jwh9OHpWqm80y53iuJ41Oqy2H94vzZGnx1+qYl/+FShdodxw8eFDNq2tqalplwVQjKipKzp1r8XXg5qFDhzyCgPvR0dHKJ4F7SBcTE2MpDq0KNlygjCFDhngGL57KcXFxloM+Ly/PkLPtRwxk1Ke+vr7tzRBjKA4hgmM2cUQcpn69Xw3mD78tlLIbjXLyeq26Rvy5xpYf+pXbP4pOZzxrcXgn/0vle4D/Qd8PpH+uXr0qw4cPV1YDvO8nTpzwOO4wGEeNGiVNTU2eosrLy2XYsGGC871792TWrFkeywLpMbAxwBHgtJsyZYqa88NysApYCYHV4mveDkcoBASWiq/QXuIAy2Pw4MGybdu2dveb+Gof73UuAo6Iwxtf7ZO4r/ZJaf1V1frdFefVNeL+dCpfxRVeq/HE6fQ6T9O9OzLveK5c+vGG1N+5Lfq+P5T379+X5ORkiY+PF0whCgoK5OWXX1Z+AUwVVqxYobz8xnIQv3jxYoGPAiEjI0PS09PV582bNyurQqeHAxLefPgaMLhKSlrvvcD0Aqsg5umMzq/PsARgEWDwmwMEKTExUQmVURwgKAsXLpTKyspWWTCtsZp66LiBAwe2sjxQZv/+/WXDhg3Kb/LMM8/IjBkzuITZiiovrAg4Ig6vH9otvz+8R5KLvpZ9Fefl7aPZ6lrHzzNd63icT9Zflca7d2Tu0Wy59GOT1N+5Jfq+VYWNcfjhY3DCetDh/PnzMmjQIHn77bfVlAKeeXPA3oE1a9aI9jXgvtmKMOaBVYClRPgcjAFWCqYt/hx7Fy5cUOlwNgesomDlAMEoDnp64s1fYi7H2zXKNC5lYuoF0YFIYJm0sbHRW1bGRzgBR8Rh8pdZEszx1lf7PelLrl1R4jAr73Op/LFJrt255bkXat9gyfKll15SgwDWRSAB0wxMT+BDCCRAMGCxYM+Av/0HxkFvLNssAOZ0EA5YOUYRM+YP5LNZHHQe+Ffef/99zxRKx/NMApqAI+LwWnamTMzZKZ9dOKOODD/nPxblSWzOXwX5iutqlDjMOLJPKpsb5drtWyoe90MNEIehQ4cGvK8Bg3v9+vUBD0SkT0tLk5EjR0pdXcveDV91ha/B7PtAegxc+CK0IJnFobS0VPlHzI5WX99lvudNHMzpeE0CZgKOiEPM/r/IuAMZ8sWlsoCO5QVHBHlwFNVWS8Pd2xL/RZY647O+Z65sINd6WoHB6++JrsuDmGB6gLz+AhyTW7ZskZ49ewYsPmZHp/4O+CqMloFZHPQSrfaP6HzBnCkOwdBiWiMBR8RhdNZWmZazU1YX5smaojy/5/eOfiFjdqdJ3MFM2fH9adnx/SlZXZSnzrh++/A+dd9YUX+fIQTwJfTo0UN55QMVBgjCq6++GlAeWAnz58+X3r17qxUMf3XS97du3apWReDX0AHWAAQJW7x1MIsD4pHX32qIzm91pjhYUWFcIAQcEYf/3v6JDN7+iQR6Hp6xIaD0gTQAIoDt0RMnTlSD1riU6Ss/VhpgXfTq1UsOHDjg1cqAz+Lbb79Vm59+/etfK3HwNpXAqgRWC/TKgdVZb2gqLi5WZellU9TVShzwxyj88SpUxyHFwdevgPd8EXBEHBbl7pFZ+zNl5r4dLef9j882rhfn7vVVb889rFS89tprsmnTJp97DTwZHn/YsWOHWtHAn7J8BUwJ8J+NtWvXSm1tra+ktu9ZiYPdQikOdglGbn5HxCFy8bHlJOBeAhQH9/YtW0YCtghQHGzhY2YScC8BioN7+5YtIwFbBCgOtvAxMwm4lwDFwb19y5aRgC0CFAdb+JiZBNxLgOLg3r5ly0jAFgGKgy18zEwC7iVAcXBv37JlJGCLAMXBFj5mJgH3EqA4uLdv2TISsEWA4mALHzOTgHsJUBzc27dsGQnYIkBxsIWPmUnAvQQoDu7tW7aMBGwRoDjYwsfMJOBeAhQH9/YtW0YCtghQHGzhY2YScC8BioN7+5YtIwFbBCgOtvAxMwm4lwDFwb19y5aRgC0CFAdb+JiZBNxLgOLg3r5ly0jAFgGKgy18zEwC7iXgiDhUNp2SjwomyrqCWKlsKlW08Lo5O4d7kYdfy/DWL7zQ95tvvpFVq1bJgwcPwq+SrNETJ+CIOGwrSpRpn/2rOtILE6SkpEQ++OADW8fBgwdDhoF3VkZHR6t3T4ZayKlTpzpsoOh3buJVfMaQlJSkXqxrjAvmM97LGRcX16YMvG909erV6kXEs2fPlvLy8mCKZVqXEnBEHHYW/UmmfNpNJm98Tv5atFLw8le8i9LOUVRUFDJyO+Kgn6IoIyEhwTNQli1bpl6Q27NnTxkwYIDnmDp1qowcOdLz8tzs7Ow29QaPRYsWSbdu3VQ6nDEIL1261CYtIp60OOA7wfvDDz+UXbt2yZEjR1S9IEZWLwPWcSkpKZb1Z6Q7CDgiDkBx5GyGOp4kFrwkFm+t1j9WX2e8/RqDzhjwxMQLcp9//nnRT2nErVy5Uj1FMVCysrKMWVp9vnnzpixcuFB69Oghe/fulaamplb3UVZmZqYMHTpU8PZvvM0bT+7r16/Lli1bpE+fPnL27NlWeXDREeLQphI+IvCWcfDUzHwk5a1OTMAxcQgnBhhcY8eOlQsXLvisFszn119/XQoLC+WNN94Q/OgRTp8+rQTC19wbwhAfHy+wHJqbmy2/B4JgFICtW7cKnsYIEA4IRGxsrOft4BhsvgTOeM9K7CwrYYj0Nq2AWMEywhvLAwnghe/394byQMpimvAl4Jg4FFT/VXCEQ4A44AltthSMdcPgXLFihaSmpqpoDFz4SXwJgs6PvOvXr5cJEybIjRs3dHSrM5yxM2fOVGa6vrF582YlOvr62rVrakpSWtrixNXxT9JyKCsrk+HDhyuhg0gEEjCdmDVrlty7dy+Q5EzTSQk4Ig57z66WGVm/kem7fiN7z67qEJ8DnKD4kePp+sorryhT3pc4wA8wbtw4qaqqUl2HQQ4rIhBTuaamRgYPHqymCt76vaKiQpWPtDqYHYoQogULFrSZujwJcYB4paWlSa9evSQ9PV3u37+vq+nzjKkTfCy+pls+C+DNTkPAEXFIy0+QuK3d1LH1+OInvlqBATh69Gg5fvy4PHz4UHJycgSOQ/gkrAKe/Fiyg+WAzzrgCQ7B8Gdew+kIywRmurcAkTE+XbVJbxYfs2CgPCtxQD3hIIWFYwyB+F10Hl2HiRMnSt++fZW/RE+ljGX6+pybm6ucsUbR85We9zovAUfEoay2VJL3jJM/7I6RstqTioadPQ7IG0zAAJk3b55nsGJw9+/fX44dO2ZZDKwGPP3MS3Z6ugAno68nKcxqf556o38BlWhoaFDCYxYsiIP2Q+jKWomDHth6JUGnDeasy3jnnXektrY2mKwqrc6/fPnyVqIadEHM0CkIOCIOHd1SbTmcPHlS+Qxg8j7zzDOyffv2NlWDKQ/nm9lq0AnhaIRVAJPbaFXo+zhbPe2N9/HZLA7nzp0TPLHNKxpWZVmJA57wo0aNEpQTatCDW1sSwZazbds2tTr0wgsvyOHDh4PNzvSdjIArxAHMYSX07t1bnnrqKZk8ebIaiFZ7DmCVYPkS1oO3gOVFrDJ4GwBwLPqzHCBQRosA19iFaHR4YpVj/PjxYlVPc93y8/PVCoxZXMzpfF3bEQfN5NChQ0o44d/xN/3yVRfeC38CjojD+fpj8sHXQ9Txff1R1WqY0XYOb0/tQJDCZMYOSfMqQCB5dRrscXj22WctBQJLeTExMap9Or35jDRvvvmmmupAkLBygfm6MWDAR0VFib/5O6wZOEv1yoqxjGA+hyoO58+fl0GDBnmsKZSDtiUnJ/ucfgVTN6YNPwKOiEN64f+2bJ/O+BdJK1ykdtvZ3T6NDUOhBAwkOO7mzJmj/tsRShnIA5/DunXrLDcp4R78EpieePOPQBix1ImdhzgwpUCcDlglwdPX1/QFaTEQExMT1VIj2mYnhCIOqDssMvSn0Q8D4X3ppZd8rtjYqSvzdjwBR8Rhb+mHMuXT52TKpudk98k/q80x+/fvFzvHmTNnAqYDKwPzdAw07FacNGmSZ0NTwIUEmRBTgrfeekttBkI7rcx9THVQn379+imBwFdgyRT1xMAyDzhjFSAE2HWJZdn58+erXZXG+6F8BqelS5fKkiVL2tQXAx9twGoPAkRv48aNast3RkaGJ15/r/bd+NrrodPy3DkJOCIOaHrxxVx1dAQGmL1YncD/FbC7Uf/A27su+J6jR4/K9OnTlY/CvBJh/n4MQPgdYEXAeept6qT3XGApFHN9b+nM5QdyDVaYEnXt2rXNbkzjrkt8L6ZCvnwzuIeVi8bGxkC+mmk6GQHHxKGTtZvVJQES8EOA4uAHEG+TQKQSoDhEas+z3STghwDFwQ8g3iaBSCVAcYjUnme7ScAPAYqDH0C8TQKRSoDiEKk9z3aTgB8CFAc/gHibBCKVAMUhUnue7SYBPwQoDn4A8TYJRCoBikOk9jzbTQJ+CFAc/ADibRKIVAL/DwnQDkF1Kjt7AAAAAElFTkSuQmCC;imageBorder=#000000;" vertex="1" parent="1">
          <mxGeometry x="50" y="50" width="170.1" height="130" as="geometry" />
        </mxCell>
        <mxCell id="fsJKned1fW-X0qUgyeQ3-2" value="" style="shape=image;verticalLabelPosition=bottom;labelBackgroundColor=#ffffff;verticalAlign=top;aspect=fixed;imageAspect=0;image=data:image/png,iVBORw0KGgoAAAANSUhEUgAAAtYAAABRCAYAAAD2OuGPAAALgklEQVR4Ae3dwW4kRx0H4H0DeAN4A3b3BeAN4A3gAWzlihCIHFAISN44x4QDUhLlAAfL4sgBKXAksSyBoiDQslIEIWslEmIVCSEVqu6pmerqarvH7sl0j7+RrBnPdFf/66s6/Lq2PPsgeBAgQIAAAQIECBAgcGeBB3duQQMECBAgQIAAAQIECATB2iQgQIAAAQIECBAgMIGAYD0BoiYIECBAgAABAgQICNbmAAECBAgQIECAAIEJBATrCRA1QYAAAQIECBAgQECwNgcIECBAgAABAgQITCAgWE+AqAkCBAgQIECAAAECgrU5QIAAAQIECBAgQGACAcF6AkRNECBAgAABAgQIEBCszQECBAgQIECAAAECEwgI1hMgaoIAAQIECBAgQICAYG0OECBAgAABAgQIEJhAQLCeAFETBAgQIECAAAECBARrc4AAAQIECBAgQIDABAKC9QSImiBAgAABAgQIECAgWJsDBAgQIECAAAECBCYQEKwnQNQEAQIECBAgQIAAAcHaHCBAgAABAgQIECAwgYBgPQGiJggQIECAAAECBAgI1uYAAQIECBAgQIAAgQkEBOsJEDVBgAABAgQIECBAQLA2BwgQIECAAAECBAhMICBYT4CoCQIECBAgQIAAAQKCtTlAgAABAgQIECBAYAIBwXoCRE0QIECAAAECBAgQEKzNAQIECBAgQIAAAQITCAjWEyBqggABAgQIECBAgMCoYP38+afh3XfeDj9/9RU/DMwBc8AcMAfMAXPAHDAHZjsHYmaN2XUfj1HBOhZ48cH7+6jPNQkQIECAAAECBAiMFoiZNWbXfTxGBeu4Uu1BgAABAgQIECBAYAkC+8qugvUSZocaCRAgQIAAAQIERgsI1qOpHEiAAAECBAgQIEBgWECwHrbxCQECBAgQIECAAIHRAoL1aCoHEiBAgAABAgQIEBgWEKyHbXxCgAABAgQIECBAYLTAwQbrX/7x8/CtN5+GB9//U/jqyx+G77z1LPzub/8ZDeNAAgQIECBAgAABAtsIHFyw/vyL/zWB+ttvPQsX//hibXH253+Hb7z+1xADt8cdBC5OwuNHR+Hskzu0MeWpn5yF40cPw5OLKRvVFgECBAgQIEBge4GDC9Y//u2/wnd/9XFVIobur736UYghe+tHEyiXFuCuwtnRw/D46Cxcbd3hgRO+hGB9dX4UHj962P85vewXJVj3TbxDgAABAgQIjBb4xZtvhBcvXgweHz97/fS1wc/zDw4qWMfgHLd+xOehR1yxjqvZ2z3agHp8dBQe18Lddo19eUfHEHx0FI5vucLcBNwpQ/nIntevu7pJuGVfRl56+LDmhuIkVKL98Dk+IUCAAAECBGYv8OzZ38NPX/lJNVzHUB0/i8eMeRxUsI57qL/5xtMb+x3D91aPZlX0JFw2zzPaBnFDJy5PH4bj86sQn29zQ1APuDdcdIKPr7tu05c9hP0gWE8wspogQIAAAQLzFKiF621DdezZwQXrMavR2wbrJuitVqpTWM2nRfP54NaFdqW13APcC48puDXP3e0bZftlW3ktm9eX4Ula3U03BpsPs1fxuHzbRbxxSKvD2fspzKY6Ywv566zFsm/b1l+enzUdQnlzU/6earqVY7/f0boJ8x2jfOW6fk5ec7qxSe0cn/+l2aITb3q6j3Ysxo1v90y/ESBAgAABAncTyMP1bUJ1vPpBBeunn/232UN9HWv8g8b4R4zjH0XYScHtmga6wXCbYN1fWe62FVbB8ua93t3z2hp6Qa4Jpe2qdurO1fnJ+g8Tu22sjuj0v7BpDum+12tjdc3rwmPvnFRcpf1e0E6Butiy02uzV0dbd2dl/+Jk80eRnX6ngirnVExToM773KsnNlm9RrqWZwIECBAgQGDXAilcb7P9I6/poIJ17FjcCnLdN3/EFe3X/lCuFOYkxete2OkGx+LoVTjKt4tsE6zz82LL8Vrle6sV1CI4duvoB+lakEsrqd1zN7/VzinDX6+Njtft6q9ed11W4dkE2cyouX72e3PezXVcf8166B06p3y/MUor/ut+9GuKx/VuftbHe0GAAAECBAjsWiCtVA/tub7p+gcXrOM3fsTvrT4twnP8g8bv/frjUXuwc7Ra2OmFyfUJMSyV4agIgqtjy/BVBtbmsNXq5+hvyEh1NOfl2xXSSnceOOt1pSbic6/G+GYnOKd2N9fqeN2y/up114W1xuvV32qw3tTTnDaijk7d62tlL8p+x9ueoSBc+A/Nl+75/aCdXd1LAgQIECBAYMcCKVTHVeu0ch3f2+ZxUME6bvNIX6cXV66//rOPmv8YJv5HMTFsv/Sbf25js952UQ22o1eS6wG2Fx4rwa3d5lCExBE9aIJcZ09wtld6vdJdrytvvldj/LBXZ95OEQ6LgJm3fd3r6nXTCWWbze/ZDUOvvn74T03lz92Qm3+yel1pd/CcosZmPNbuWduxzbSSHV/XjskO95IAAQIECBDYjUAeqtMVbhOuDyZYp1Cd/6cwcc91/KaQ+HPdV/AlwPJ5OOBVVqYrwattrw2e5T/xN2Erhap4YPX8YnW2LLD6+/A5TX8ebYL6YOBbtVvtf6XO5rgYCuNneZ+arSw37wcvu1G9bnNQxXJMsB5Rx/A1V9UN9bvT3/bYsq1h59if9qYgHrNehS9B/E6AAAECBAjsTKAWqtPFYrj+0Q9/UP0qvnRM/nwQwboWqvNO3u51JcRlDXXCUxPuhoNRc2wWaNsQ3f3mj3qwTt9IsQnDsYT8DwyzktqXlQC4OaYI3au689DfabvWVu29JriehCeVcNiEyrzvN9U/tAVlVWtvVXdUsB7j2Np02s//eLG8ToNaOWdVZx6Sh4N1u93m+PwsPCmMNmPmFQECBAgQILBLgbif+vfvvTd4ifjZvfkPYnYTqtMKcrbFoOReB6g2gFe3i6z/ab845vSyv3+5Gljbi7bhtLadoyxqdZ31dcvPVwEzX2Vd9WNdf/5ZyOpO7w/UWQvQ6erj62/PaG9Esv4221oGxqIMvAP1xZZvrmMVlNfbaLo3NJvz8/fLc/p1NucNjcnKP7+5SW6eCRAgQIAAgWUJLHrFemehelljqNolC5Q3Bkvui9oJECBAgMA9F1h0sP7Kyx+GfE/1PR9L3V+gQGdL0QLrVzIBAgQIECCwEVh0sN50wysCSxRot5Hk+7GX2As1EyBAgAABAq2AYG0mENiDQNqvbW/1HvBdkgABAgQI7EhAsN4RrGYJECBAgAABAgTul4Bgfb/GW28JECBAgAABAgR2JCBY7whWswQIECBAgAABAvdLYNbB+t133g4XH7x/v0ZEbwkQIECAAAECBBYnEDNrzK77eDwYc9Hnzz9tCozp3w8Dc8AcMAfMAXPAHDAHzIG5zoEYqmN23cdjVLDeR2GuSYAAAQIECBAgQGBJAoL1kkZLrQQIECBAgAABArMVEKxnOzQKI0CAAAECBAgQWJKAYL2k0VIrAQIECBAgQIDAbAUE69kOjcIIECBAgAABAgSWJCBYL2m01EqAAAECBAgQIDBbAcF6tkOjMAIECBAgQIAAgSUJCNZLGi21EiBAgAABAgQIzFZAsJ7t0CiMAAECBAgQIEBgSQKC9ZJGS60ECBAgQIAAAQKzFRCsZzs0CiNAgAABAgQIEFiSgGC9pNFSKwECBAgQIECAwGwFBOvZDo3CCBAgQIAAAQIEliQgWC9ptNRKgAABAgQIECAwWwHBerZDozACBAgQIECAAIElCQjWSxottRIgQIAAAQIECMxWQLCe7dAojAABAgQIECBAYEkCgvWSRkutBAgQIECAAAECsxUQrGc7NAojQIAAAQIECBBYkoBgvaTRUisBAgQIECBAgMBsBQTr2Q6NwggQIECAAAECBJYkIFgvabTUSoAAAQIECBAgMFsBwXq2Q6MwAgQIECBAgACBJQn8H9K4qTiS/zDiAAAAAElFTkSuQmCC;imageBorder=#000000;" vertex="1" parent="1">
          <mxGeometry x="300" y="50" width="466" height="51.99" as="geometry" />
        </mxCell>
        <mxCell id="fsJKned1fW-X0qUgyeQ3-3" value="" style="shape=image;verticalLabelPosition=bottom;labelBackgroundColor=#ffffff;verticalAlign=top;aspect=fixed;imageAspect=0;image=data:image/png,iVBORw0KGgoAAAANSUhEUgAAApkAAADyCAYAAAAGA97iAAAgAElEQVR4Ae29bXBUVb7v76v7ds7LeXfKl/9XJ0ndKpiiLEunrJojhzMTmXNOGOfPMKMHr3fCYY5wvcIwIwISHAniCAxCUAQRAjIRBaJIVORpyCCxNZCI2CAGghgIBBAaAt9bv717da+19trdu7t35/HbVdC7997r6bN3Z396Pd4FvkiABEiABEiABEiABEggZgJ3xRwfoyMBEiABEiABEiABEiABUDJ5E5AACZAACZAACZAACcROgJIZO1JGSAIkQAIkQAIkQAIkQMnkPVAyga5ddXjs4RpMemIdEn0lRzf8I7jWgfVP1GDSw1OxqLlr+JeHJSABEiABEiCBIgjEJ5l9uzG7sgJVmX+T0Xi6iBwxSIBA55rxGtcKjH3uEFKBswZpx+lNmJK55hUY+/RuDCfP7NlWa7DN3r/pe/m+ak8WZy/ehOa2JPr683FOofW5MVqc1Vj/Zb4wPE4CJEACJEACI49AbJLZ1zxDe7D6D+hJG5Mjj9hAl6i/Aw3jdXmX7TrsGyqWeXITJmmSWTVrhEmmXjbZHvdjTFt1CD2hspnCvoX69RqPhs6BvmmYHgmQAAmQAAkMPoGYJLMHTbX6gzW9PX41OkMfxoNf+GGRg7Z6jLVFp7ICM5vLX1+YOt2BfduWYfbj1WhoC6OVQufaqbi3sgJja+ai5UzYeUNzf96aTAd7r7bzvhloCqupP7Mb82qkNvMePLa2Y+jUOhd4CVI9SSSaN2HREzWYvb2nwNA8nQRIgARIYLQTiEcy9SbTqXMx72ElnOPRcHS0Iy6l/GbT67yn52Zri5/cWeZm6QSWaIK1JFQySynf4Ic1JLO2CQGV6k+h71wSrZvrMOU+dV+n38fVommYSXV04uYPx2nbAmSiR8UzCybwq1/9Cq+++mrB4RiABEiABIYSgVgkU+8zOGFNBxJLs33ShlT/waFEPkpejH6us9DS2YRpGfErd59XSmbgEvV3ofnp6qzoS+3t9J1BMQ0EHI47KJmDddU+/PBD/OAHP8Bdd91F0Rysi8B0SYAEYiFQumQafQbT/c/0Jt5xdWgdKv0HY0E2cJEY/Vy9vo7mg3/K5nKOXKZkOq90fxeapmd/RFVVjtTaevNeY02m824oy86nn34a06dP9wSTolkWxIyUBEhggAiULpm6UEofTMm4IZ4VmL0rvP+g0VyZqaWzmiX1/UsTaTQRJeicXvtXgUCzb1u9VjNVi6Zzkv8etK6qxQPjJB/3YPYuR1NhXxL71s7CY9X3ZMLfW12DmUubkJA4Sn6ZD3nF0BBPxTtiWn0n96Jx4QxM0vJcJaOnn6hD474ur+9gtOtRD3UVAPM6ZGRE70JRWYHMfldeU4ewyGPtX3dnf9My8TbK62oud+X36GpM0O7JsZl70j/ZiLNSZyXHzetalQ7b19mERZP9e2nsT1ZrfLMZ6GlrwpInatL3pT8IadLjs7B+T5RR70CU6w/j+xD2PUx/T7JZ87dSXUh4fXi1PFaOwQM1UzF7RZ7vhZFuru9hFxona/l6eBNyDS9MbqzJfD+rntxp53jIfe7t7UVFRQV++tOfenmTJnOK5pC7TMwQCZBARAIlSqbZZ1CaytWrc5U27U6O/oPmA1l7eGgPcX1amYlr1SPFlJuAPKqMFCqZZ+yaqqAgdTXPxSRNivT8+dvVmLerxFpGQ9JmoUV5eu9OzMywiViL1pfA+sezMhzMbwWq0oIV7Xro4mReh6xM9qH5Se165rgHUgfrtMFNM9Dcqy6e/15O3kZ5o0omkmjM9DuuQJUlOkacESQz1VaPiZlrKsx0vgAiXL+xv16Nzmsmt8ynCOHV9S9WMvNfIymXDIRKuKeBsiUzx/fQ+KFVmavbiHmdnD9eMpAGf0MJ5j/90z9BttWLoqlI8J0ESGC4EShNMlN7sSjzcLSmajFqe0JqPuT52bYJy1csc/97aZYxPc7Y6U3oyoxWN+UmLslsWDNLEx5fkrLiBHRtq9WOj8ED0+vSea/H7HRNlBLNJW3F9xMwamCMaYFMebNr0QI34LUEllRrsuddr3swUSZPl381P/bLkxas7PWYZcx/OWWOfo12I6vQ5nXQWZkyEJRHP6/mDxW7D2+5eRtCGFkygcRSnWk9WjP3JWDEaQujXZO5eDUaAtdHk0z7+t03GbMXp6/FQlXb7ufF/H6k7wQ7fJ7rj9O70/dzHaZpU2dNyNznkvYmY9J98xpJXrT76+Fqb+YB/YfNxKWJ4Ih7SzJzfg+tmu/QbiP69FpDvNtOmGCq7zNFU5HgOwmQwHAiUJJkGhJhN91aTeahD4IctJIbJ2ebusbVotlohjblJh7JHI8J42UqnnrsO+MQxJP6xOPVWLTPakbv70PrUm1gyORNmozlKKh9yGKnmsrVaQb3nA/PPrTM0vsPjsGUFY45Hns70LR2tzWAJSLfsOZyyazxIySk24QhDFbN7ADwNoSwAMns2jo1e29Wmj+ijDjzSeb48ZhQeQ9mbu5w1PDJnJvZ6zd2+iYk7drK002YlqlVH4NFB/X7tpTrbzbr6z8e1H3ovXeuNmphJY+dqtZdndjXgUajH2t1cO5QQzLzfA8BGC0lId8zfUBi3h9jKq8D9C5SuXbtWsydOxdLly71msjtGkzJipz3s5/9DL/73e/wD//wD5BR53yRAAmQwHAhUIJkmg8hvalcFd54EFhNiuqcsHezCbEawVrBiBJUUHO59HOrwz77Qe5l0qxxm+CqjZHzjObsGjSeDCthjv16P9dKralcBTHSqMCisJnZjdrkMZi2LVv/qKIKf4/IN5dkwmTmmqjdaCo35lU1w5aLtyGEBUimEa4UyayswJSwRQuMLhOmyOrXzfieLdybrSUs6fqb32+3ZJrXqKq6HgnndwfAtUNYotWM2jXWgWb60O9huuRG2VxN5voiBtaPFx3eIGzL6HERRpFKGeAj/S/DBFP6Z8oxGQzEKY0G4WIxSRIggZIIFC+ZxgPQaipXWTIeBAX8ob+21xgIMnGFo3nNkpt4ajIrELpKUf8hbd7IkPJ65Tb7gdm1kApN+Lv14DaaylUos8lcBjTYlUdyZmJFthasyhA4FU+u9zgkExB5yE4mbwuzWVajtnuAeBuyWIBk6rVkVdYPASPOfDWZOVZvMmpLnfeBf/1S++qytapai0Jp1z+CZBrXKNh32b67jC4gWj6984yazBzfw0yk5gCggAR3aoOzQmo6M1EN8IbURopktrWFTz6br/m83FluamoK5E/Vvsq7/pJyyPl8kQAJkIBNoGjJzPnAUKlYzb4TVmUHBqlTAu/WFDHOfmZeoIgSVFBN5hgs/yyQI3+HFY/exyzXduDhFxJ9ZneUJmbpy2os4+nq72hKwtgV2fHgmbRybkTka8l+oLzWPWDUuhpN5VZN3QDxNoQwsmRaS0dawmTEmU8yc8yzafb71PuA5tpW/TlLvf5m+MB1lXvHuEa5fnilb7RWfSYH6weHIZk5vofaPWt8B6xrp/8IcOZdi2cwNnOJ5mALpvCQEe333nuvgSasX6icJ+fzRQIkQAI2geL+MljikEuyjGM5+w/6WbP7YYavqBJRgowHYcQpjGxK8tmKxyhXZvBT8OFf6APOeHDmiNdO36gF9PIfQRJc5czsi8g3n2RK/7k12kwDWnOu0VRu18YOEG9DCC1RyaCwNww5rkCVViY51Ygzn2Ra0x/pScUpmYXeh/ZUS87wxjWyfiToBVHbhkha5+c6psLb78Z10OPTm8pdP8DsiAbnc5hoSvO4q/l8IHMZVpMposmazIG8EkyLBIY3geIk02gGD4qVLUD6Z6Mmy2Jn9sMcjyU5Z3GPKEHGgzAuyazBkuZDaD2Y/1/CNYDIKnf2o9UMXoBk2tPo2JIQ2g0gm7i1FZFvBMmEPso30zysN5XbA1ZsqS8Xb0sII0qm+UMgmPeySOaT6yLdb60Hk+muE+aPjMKvvxk+v2RG6H9s1GTWwehKXIxkWn1+M3nU/j4F+n5ad/lgf5RaQLvpXPpovvDCC4OdNaZPAiRAAiUTKEIydTlITwitpsMJefcnNU/LqF1jpYpg98MMG1ijzrflZrs10ludZwhOCZJpLPFYgSWtKoEY341+rhWQyd29aYZCuBqTqlfafV5lZLH2AyCiQGVLE6NkQu8/l5YyvRZqXD0S2hRAXh4Ggrdd6xiF0Rl9NHcFqqpXo9PKe1ySadQAT20qcKaCUq9/BMm0unbkm4fS6GJjDwQsSjIBaEKp+iZnB0IFfwBk7+/B31LNz//4j/9oiKYM8pF/fJEACZDAcCdQuGRaD5Yo/SyNh2Wlo/nK6odZNXkTktaDOwhabxKrQFiNRecabUqhyhIk05rfcKzVRBrMX+F7jIewi5MdpSVi9rUwa9zy1QzbkZuSGT6AyTwvU5tkRaeLl1yrPm0CdjvfflBTcsrBW9LR85WZkNzKe+bj6Z2YZ8xpWY3ln+lTBqVzvq02OxCnhOZyc9DU5IJnKijt+pv8XbNHAFbNewGjywPxFSuZxg+YGWju0f4uFDzYLXOly76hBFM1P0vzuKrRlG3ZzxcJkAAJDHcCBUum/eBqOBoBgVWbaPcfjN4PU0/LGnxRWY0lreYY6549dcYcftJsHxiFXsDDrW+XPlF7yJyTksX+PnRum4v1YYOI9GKobbufa1iNrzrfe7cY2H1eUwlj2piqcTVYsqcLKVvgI8yTGS550STTmNpp3DI0ZEa+u6af8QtZVt5pjnklsz+FnpOH0LR0qjWp+D2Yud09JZQRZymSKfeELrXVc9EUmITSL0jqzCE0LN1pznVa0vU3JTPsh590cTGW2IwyT+a4WWgxByh7sxBku9Xo/SvTFyrHm/43adHSbH7svzM5ohjQQ7pgqoSln6MSzR/84AeBfo/qPL6TAAmQwHAiUKBkWjUX1qja8ILrzaUVkAeWejyb/TAr8MDjagUdfYUZbfsDFRKwH3BV3jrJ6Sbm9PrcE2prjVWDSpFM2DWu0mdy3I+9tb/9VYvqMfvx7LrNgbTCAZnNfpUhE5c7whuDZyqDzYM2X+9BLuuVqyZ4a8WfbBKWZFRqzfc1+traESUTevPtGIxVE4jnaqIuJ+90QU0h1LoX5OoPK7JuT8SfBWfWjpYimTKffWDJSbkOU7VVf7S16B0sXeG99erzXn9Z1UibAquyAmN/orpvzNIWRkghoS9A4HHLteJPNeZ94OjaUsCPPQ21v2nNG+vLaviPl0D4AdzhEkyVvBJNmUeTLxIgARIYCQQKk0yrz2CgySsHEfNhnp7uxK5pyfVgV8eM0biuB1xWFLz1nL9swjQVtsSaTK9415JofDLPOuDpB21D5JpMq5+rNe9iDqxAfwJLlLBJuo75FFNH1+Gx+7JcsjVG2r6oguKVTU2TIzmLKpmAKcR+2vn68aEsvLNEzftS46HdM1le92DKwqbgijbZ6LwtM06dlRy25N24n62I0h979tVjkn6NnXmrwNgnrZrMdPhirz/s/qeZdO2axhQ619o1vQ6WueS8FMm0BgB51ytSS4Cbd7n25hLMcqXJeEmABEhgMAkUJJldm7VlHisjjCbVS2bVNnj98KyR39mHueMBpR5wjodyz8F1mP14do1kr6ZnbXr5RCuNQO1ikQ+3nrYmLJ8zFZN+otX2SA3h47OwZPNeJO3mQJ2Fva0PgpFyFtjfMzvQQbg5+rxKev09SGxbZtS0+mtMz8Aiya/Z0yCTw77OnVjyRLZ21q+51QehRJdM2OW0m/czqQY3YuWtRW8KoX3fjcEDNTV4bE49Gps70BW2mo0Wn2yacZYumV70fUns21yHmcZa4H7+Zi5ch6Y2RzcIPV9FXn+cO4T1c6ZiYuZHyj2Y+PgyWD1T/JTOJdC0YhYeU7Xjci9LTf/js7B8WwJdwe6r2RwW+T3MRKAPAKrMsQpWJsDAb8iocfa1HHjuTJEESGDwCBQkmYOXTaZMAiRAAjkI6JJZwI+XHDHyEAmQAAmQQIkEKJklAmRwEiCBwSZgdjdxz1Yw2Hlk+iRAAiQw+ghQMkffNWeJSWBkETC6xAzNAT8jCzhLQwIkQALRCFAyo3HiWSRAAkORQF8CDb/O9osOn2prKGaeeSIBEiCBkU2Akjmyry9LRwIjjkDPthmY6E3BlB3s5w0azDUZ/IijwAKRAAmQwNAnQMkc+teIOSQBEtAImKP30zMC3DcDzWe0k7hJAiRAAiQw6AQomYN+CZgBEiCBQgj07JqVWX1p7E8mY7aarqyQSHguCZAACZBA2QlQMsuOmAmQAAmQAAmQAAmQwOgjQMkcfdecJSYBEiABEiABEiCBshOgZJYdMRMgARIgARIgARIggdFHgJI5+q45S0wCJEACJEACJEACZSdAySw7YiZAAiRAAiRAAiRAAqOPACVz9F1zlpgESIAESIAESIAEyk6Akll2xEyABEiABEiABEiABEYfgYIl85OVj+LRR/+A7d3hsPxzVuCT9Cln3/lD3jDhsQ3Qke7t+MOjUrZHseLIAKXJZEiABEiABEiABEhghBIoUjIfxaMrlUJaZDKylpVM64wh+PETrLDl8sgKPDpnO84OwdwySyRAAiRAAiRAAiQw1AkUJZl/WLkCf3jULZFereWcP4QeH5pARDKt2llK5tC8VMwVCZAACZAACZDAsCBQnGS+8wm2z3kUf3jHrudLy9oRaXrWJFSETf8MwG9C95uns03UZ9Px+vEbzfKZGtJ0GLuW0UvDjk9dA7+mUtLx/2l5s+N9dAW2eF0C1Lk5am1V9HwnARIgARIgARIgARIwCBQpmWcBV02f2ueJmyZylmT6gqkd796O7V4/SF8yDbmU7HrhzZpGr9+nEk0vPe14Jj4AaYnU+1kG0gdrMo27gh9IgARIgARIgARIoEQCxUsmfCHMypv2OadkOoQuU4i0ZBr9Pf19obWmMgDJTi8TH+DJqBGfHNTy6p3ryJMSZi0ubpIACZAACZAACZAACUQjUIJkppu8lcDpoqdvSz70mkx9O5BHl1D6Td1ZmVWBdFH0t6Up3JRRV3x+eJHP7LmUTEWV7yRAAiRAAiRAAiQQB4GSJBNaM7MhbfkkUzVzB0rgkkKHAHrhdMlUEflCmm1ud53jn2vkVyuHisnZHSBzkBskQAIkQAIkQAIkQAK5CJQomX5z9B/e2W6Ozs4lmd4xrf+kkTuXZLr2SaAw+TRrWNlcbgDmBxIgARIgARIgARIYEAIlS6YaWGPMm5lLMkUPZfS2XpuZGagTIpRhA39UU/2RFcYE6oZYenkxJ1j3p1nS58B0CGvOZv0BuTZMhARIgARIgARIgASGLYHSJdMbRGPVTOaRTKHliWBmSiEVPkQyJYAnfSHTCqVFMjNFkZJPdVns47rgeuc4JDM9OMiL045Pxct3EiABEiABEiABEiABJ4GCJdMZC3eSAAmQAAmQAAmQAAmQgEaAkqnB4CYJkAAJkAAJkAAJkEA8BCiZ8XBkLCRAAiRAAiRAAiRAAhoBSqYGg5skQAIkQAIkQAIkQALxEKBkxsORsZAACZAACZAACZAACWgEKJkaDG6SAAmQAAmQAAmQAAnEQ4CSGQ9HxkICJEACJEACJEACJKARoGRqMLhJAiRAAiRAAiRAAiQQDwFKZjwcGQsJkAAJkAAJkAAJkIBGgJKpweAmCZAACZAACZAACZBAPAQomfFwZCwkQAIkQAIkQAIkQAIaAUqmBoObJEACJEACJEACJEAC8RCgZMbDkbGQAAmQAAmQAAmQAAloBCiZGgxukgAJkAAJkAAJkAAJxEOAkhkPR8ZCAiRAAiRAAiRAAiSgEaBkajC4SQIkQAIkQAIkQAIkEA8BSmY8HBkLCZAACZAACZAACZCARoCSqcHgJgmQAAmQAAmQAAmQQDwEKJnxcGQsJEACJEACJEACJEACGgFKpgaDmyRAAiRAAiRAAiRAAvEQoGTGw5GxkAAJkAAJkAAJkAAJaAQomRoMbpIACZAACZAACZAACcRDgJIZD0fGQgIkQAIkQAIkQAIkoBGgZGowuEkCJEACJEACJEACJBAPAUpmPBwZCwmQAAmQAAmQAAmQgEaAkqnB4CYJkAAJkAAJkAAJkEA8BCiZ8XBkLCRAAiRAAiRAAiRAAhoBSqYGg5skQAIkQAIkQAIkQALxEKBkxsORsZAACZAACZAACZAACWgEKJkaDG6SAAmQAAmQAAmQAAnEQ4CSGQ9HxkICJEACJEACJEACJKARoGRqMLhJAiRAAiRAAiRAAiQQDwFKZjwcGQsJkAAJkAAJkAAJkIBGgJKpweAmCZAACZAACZAACZBAPAQomfFwZCwkQAIkQAIkQAIkQAIaAUqmBoObJEACJEACJEACJEAC8RCgZMbDkbGQAAmQAAmQAAmQAAloBCiZGgxukgAJkAAJkAAJkAAJxEOAkhkPR8ZCAiRAAiRAAiRAAiSgEaBkajC4SQIkQAIkQAIkQAIkEA8BSmY8HBkLCZAACZAACZAACZCARiAWyZz7zyvBf6OXgXY/cZMESIAESIAESIAEPAKUTApyyT8Q+F0iARIgARIgARIgAZsAJZOSScm0vxX8TAIkQAIkQAIkUDIBSiYlk5JZ8teIEZAACZAACZAACdgEKJmUTEqm/a3gZxIgARIgARIggZIJUDIpmZTMkr9GjIAESIAESIAESMAmQMmkZFIy7W8FP5MACZAACZAACZRMgJJJyaRklvw1YgQkQAIkQAIkQAI2AUomJZOSaX8r+JkESIAESIAESKBkApRMSiYls+SvESMYOgRSSG6rw5T7KlBVeQ+mLNyNrv6hk7vBzklP62pM+8kYVFWOwQPT16Hz2mDniOmTAAmMZAKUTEomJXMkf8NHWdlSB+swtlIEM/tv4trkKKMQUtzTmzBF4yKMxj69G30hp3M3CZAACZRKgJJJyRz2ktm1ebIhFUowZjbz8VnqHwg9/HDg3LOtNngvPLkTPXpBhsF2YmlWktX9HHgf92NMengqZi9eh6aDSfTlq7Ftqw+yuW81EsOAB7NIAiQwPAlQMimZw1wyO9AwPuSB/ORO1tLE9ndpaHBO9STRuq0eM6tD5OjoakywauumbO6KjcJARRRJMq1yVo37MaatOoSeMNns3YmZVpixzx1CaqAKVa50+lPoOXkITUtnYOIqKnO5MDNeEiiGACWTkjm8JdMhFdkan1o0nSvma8EwAQKDzLmreRameH0J1Q+K+pAauJHRJ7MoyUwL5NiaZWgNqcQfWX0yu9A8ZzIeGKfuiQpULaVkBr673EECg0iAkknJHNaS2blqfLAJUKutGY61WIP49yA06cHmHJSuMMkMLcKwOhAs7z2Y+HANJqX/GWKl3e+ZH1jV9UiM+EE9CSyxyz4KJHPK5F+C/8hgoO6BUv9wUjIpmcNXMlOHsEivxaisxZLFU03pnLwJw6+xtNSvdczhhwDnoHSNNsl0lDfVg+Se1XjMG0mv1ealxWvimo6Yb4ShFt3olcyhdiWYn5FJQES21Bclk5I5bCUzMJL44U1Idtp98mrQeLLUr8noDj8UOFMyHZKpbstrSTROl2mJbNGchZaQZnMVdHi/UzKH9/Vj7oc6AUomBbFkQZwbA8PB+aKksG+h+VCdIDU3/QksMWo3K+Dtd2bS8ZAKPKjNNLJ9vhxhnU11+c8LCFRtkz8a+vReLHmiGvdKnsbNQLNjiHTfyb1oXDgDk7T+ivdW12Dm0iYkYumPGgfnIPxMvqvv0eRImoSnYvbavejyRqM42IVcnyVt6TTONWGadU7mWOAHSAXGOq8ZgJObMMmKx9X1IlOOmPkH7onKHJIpRe/djdnWfS/SOXuXbplBntO2mTdVcHR+Ot2+BBoz/R/vQcNnOa5psSz6+5DcswmLnqjBRL129r5qTHp8Ftbv6/IHKblGyVvXyhfuEGZ9SezbXI/Zj9cY/Tnle/PYnGVoajOZGCUNu7/6+5DYnO03fK83AKkLjZOtvx+V4T96A+zH1aHVMSorjge/USZ+IIEQAnHca6zJjEGy4hC14RxHyP1Z3t2BkbLj0dDpJ5lYatXqjF+NTueI2+BDN1gbZD0kMlLiCJs5phc9/3kBoahtQteZJkwzpMEaxNTfhZb5NYE5Ic3834OZm5OljR6OhbPGo2cvlkzWxdLi68mCKquDnVMmKpARyTAJ8LKQROPDVnpyb2jZU5uBB37lZDSeVkcBlJl/4J7IJ5kAkq/XaMLul3PsCn0gTJBnJMm8lsCSapNbhrcgiYFFz7769AT6ZjrG/ax+fBUrmf196Nw8w//RFnIfqfTG/noZWl2u6by/UkgsrTbZp/8W9DXPMPdXVsD1YwXoQ/OTZtnDRv7H8eDX7mRukkAogTjuNUomJbPk2tDQO7SMBwJ/vHVZaKu35Gs8Go66MhN86KqHjPt9DBbtU1ULjrCxSeZqNFgPnKpKJV7+Q73J2TxqPqT8MozBtG3F90qNh3OafUCcXfmVfaqsDsYhcpCRHqcEZK99cK5PV81SH1pmWXnTp8Pq70K5+RcjmXDU1FYpMfMQBHlGkcwGx+C6DO8YWHRtq7W+rxZ7dc1VWYqSTIcIqnjD3u+bgeYz2XvH23LdX6vsLjraKPdAf+YKmNckHX/fbsw28hH2NwveoB8rV0P+Y3dLB+7a0F1YPm9/i8V1x7HjYmHB5Owjje14qOVS4QGLDnEJG+rbsdj6xXr98HHc9eoZXLfiLTh/qRtWDNrHS6fx2+dO4tgtbV/IplyHHzZGvw6UTApiyYIYRw1qyP1cxt09aKo1H0QTVmmDHBx/2N3Non1IHjyEVse/lpeCE7xPXJrQagWDD+xsU7pe9PznBYXCLJsvi0q8gORGO2/VmLc5ga7ePvT1dqF1xWTzoT2uDvuKGmkcF2cAqQSWW7VhXrnG/RhT5tRj+YplWL6iDjO95nNV1uz1WR+Q7hlYr123ZG+auUsCVFO6nOJY9cYWLaT2YpHxwK+APrI1nXYAACAASURBVLH/QPAP3hMhTb/6reYouyk0wXvRLnuwBtd1L2ZrjktlkfpsGSZarOW+GPuTyZi9WO6JZVi+cIbffK4kszeZ/s6uC8z7WfXkOu37nMzMk9u3a5b5nfDSvMe49/zlNs3yjp1uTeTvYuzIv/63IDgzwww0q/s1ff0kf/73PJ2+/qNZv8aIRzLbuq5i7nvfeP9kW3/1fn8La1vPe8fkXT6X+gpK5jUc2NiBX2w5i97b7tivH/kSP9rQHRA099n63svY+mI7FrTr+6JtH9jQjrue0v91YMP5KGHPY/Fcx7ntJ3BX/SmYWldo/i5j67J2/KLFZdv9SG7vwG/3X4mSSch1KES+KZlDQDLrJr4C+ReHrA3XOCLd3XGeFBCFMdnmUi+dYD/CqpD+Tc5sOWrcxk5vstbADj6w9QdLNt785wWFQvpg1mDJni6k0s38qZ4u9EglqkOgp221ayqDTW9m37xs7nJuxcg5UCNaWYF7n9yETr3LYDozPXuasM9qqgwyCpEuhwRkat28+IPiXDXLWloxUBNeh0wF9gDxj1xe/QI6yh6PZEq3iw7//pP0rnWhRySpZBbB+1TWm5e0AqsX9fdg39a91spN+b9bPh7HQgLjatGkd3+QEyWNhfaUaFaNoouxupe9L6jEk0LXOe3GDnyP7L6ywb9X7iZ1vzSlPvh/tfFL/GD2IUxvOomn3z2Nf5z/CX72SqcnkyKc//D7Vvz0lU7vmLzLua+2RjItP4P2/7dv4Nj2Dty14iR2tCTx+5Ud+NGWbuDWJbQ0duDuZ49jxzmrP9PtHjQ8p8term1b7kzhO7LFHTa/hErt5FE0fG0XyPW5GwueOo4W1dClTnFKZhH5u96NBfM7sEFxkngNGdbKGJBalRmESKZfC2vHJzJa6r0mKbO5vARRfenRjdiz8RPvn2wPV0ksNd/ZW3hgtpIbrb5n4+qRsP5GpfbVmTUDlWOw6KD9F8CRX2n+s2pJq+SBZDebIeoDLv95QaGogF3DlMlpq700oHsEcYCRsyk/E6tzIxBH0ZwdYje+Hq0F1K4GGRUrmUBQeDWJBGD36TX6xg0Q/8jl1a+cS4BU7Z93XvBetO8zV03mBKMGX0uwVBaO/E5YXMgKRMHyOH/oRRzE5ZXMkadJG5PZQjuOV42vRyLnnxaHTOs/bAI156omP5usvlXKg1+k8t7l7YHaSRHPivqEJ5wfnrisJwcRTxHNkxdyNNkaIdIfzp/CQ0+144d/PIr7/9iOu547jmUtZ3Dg68u4nqkc7Ufv4S/xUKNeY3kNBzYcDam5cyVk7UudwYynvsSBkBpS6+wcH7uxYHY7fv+p9XBxhfDKegIH7GMuySwyf9ePncSCg+kuABKvs/tBNxYEJFMEWJNQfduLQyTTFHVV41nKvaZQUDKLlMznJ72GD9f/HRfPXvb+ybbsK1XYhmN4dTMNzHuwVsLZFB74w12BqoV7teZuV25d/baqsaTN9QSJ+ICLIKNBoTClR8+pSwKMZjZX053ss5v99Eid23FyDrIyB6Q4M2DsDDIqXjIRGMyk14Tb5daPAQPFP3J5dUoB6atA1eJD2hnB65BfMl19Vv0oS2YR6Fs5Bssdo9a1AlibwfI4JTPAJTtI0IoQgH39tf6VcrJDMg0JDUbo7QlMA1aZ/Y4Hjun9fx3xlfLgv+uJA6GyKDWbdtO5Sv6FPWchIlrsK9hcHhbTDRx5qwP3e83kOeQoLUrOpl8RvrlJHAlLIur+vm/w29nteHC71aziCi9p1p2E9nPEP8slmXHkryDJzGZYrsMvPkz/iPj6pMcZoGQOOXGb/6+rsWP5x/g2eQG3b9/x/sm27JNjw1EUS8lz9hYegK2cyxua/amC8uWu9VO5dg1ACJ/QOuIDrhjJlPk+Vaas96B85Ctz+rhRo2VF6voYJ+eenYFphWy5cWVB3xcsdwmSieDAnsw0V3atlzUzQTAf5eEfTCekvBlIKbQ+Z82qUGnXiAfvWfs6BMUxK0OZpNIbwTwWxqJne63V2pC7Bs9OHxG+WxImWKZc6Thq3fVWAIdkZgcDBnOY2ePoWqDC2TXn+bq2lCKZ0jRezEtqN6UGtNhXdMkEcPFSaD/NSOm7xC5SQOuk9hP40YYTmLHsNKwutNaJAEQc608h+fVJzNil9Z105cW1Lxhj7j0Sh14jqW8HajKzUR3ZejTbV1XiyFGTKd0JSrnXVKqsySyiJrNx3rs488W36L+ZrUaXbdknx0oRtuEYVt1MA/Fu/0EOimTuB50+gMPIr/TDtGoBg/0w9RAJLDemGLJqPDKnBh/sdm1L4GGdQwgDTdiV5nKDatnBwPv83VZ/tkwGnRuxcnbUKmekzpl6cGeAUdiUPg4JMPtk+nEHBlqkxd4WEruWauD42/dxHsl03L9V9rRLDinLL5nh6ZbKItilJVcNY/CeiCqZKKgmM8/3OuL95cqtPQDI64bRb9WcRug7XsqDv1jJbPr8wsBJZi6B0mXqqZDBPRLeMaLbdU3C9/VDBgEtaL+CHSs7sTXfQHVPMk+i4bWjWKzPlyd5saWvwPwZg5FePO0PIpI4nM3l4SUC+nFgvdbHNBOHuyaTklmEHJYqcM+Mfxkrf7sF3xw7h1tqRIZ2TWWfHJNz5NxS0xsu4TUE5d101AYUKplVrqYoxzyA0s8qd59BR42HSw7tmjERWb1mxOsDaAmFK5402YAcZab7iRF97JytB6kwsGoI8+U+bskMjiCX2i27htOaGxPAgPB33RNhUi3g+g4F5rGU78VYvd+fBzj4g6cUySyZhWPKJWOWiHw3hUOa7e+WF4XjOxg6sMYxSMdgVIJkBmY2kD7OVouBs+uPxaEUyfynxQmIMBb6klrMUgb/eDWZ9V9i8coOv3+myOKco3hkwxkkM/0z8+XqCrrPZfuF+hIYDNO7/3gRAmbFc/0MZsxP4shtoHdvJx7cmYdZz2n8YnY7fvic1WTukMyi8yciq8RS4rWEW//s7EaAHjTIlFBqTBolc+WQkrR5/7IKf/7NGzi2L4mb2V7L1p0J75icI+dKmOEiiqXkMwChTDuCNR8VmDC9Lj39TXq6E28qHLVdj5mBaXOspjLnPH9h/TD1gvWgebolh1JzpC9h2d+H1sX2aNXSJDPwoKqsgDm1kp7H4rbLwdmuxREJmvjcXvRkGwP8zPankGxeFxhd3rnG5liD9a4uYpElINi8PHtbkzl1kUv2HRISN38BEUmqU11IbJ6LSXaNukh8xMFqhkA5m5bDazJLvhftWjyvJaEai/Y4+sClkmh+3R5d7vjx8vA6JAP3lOM8Fx/n3wLrh0bk+8v13bMHAE3FvKf1QYzWSHZXFCVOYSR9LqU2M6zvpStJ6Yspclrc6xqOtRzH/bNl4M8JbD1+Eb2qgiZ1ARtebMcPQ2odr392Ar/dchbdaQmVOSfvfvFURkqTuzqyTb9a5gpqmtfCZTf7Ic3KGbFMncXv5xxHiz3ZZTYAAH+QkC13nlCu/MZobi86f7ZkKuE08uGPIHeOnJc+pnq/0fYTqNwqswawJnPQRU1qJZf+agNa327H7Vv5h6zJOXKuhBkNNZrWPV6mj3Ytkwhe+KAElYng5NvmihtdW+1+YRV4YM4m7NPmYDTm0fxS/QwEguLjTz3kz+9Xj9lhK9uUUJMpK4O0zAr2vbv38To0Nh9C69Eu9J1LIiH5b96EJXMmY3aUjusKmKO/YhyccW6ntYJRWtDvq8bMhekfBYvVsnzWDwGRn0D/vQpU3TcVi7x5FGuzyxwWIAH2gIsJtbXGUpLurhXl5u9fiKBkmt0ijGUXPTnTf/CE/UiKtyYzjntRruvYQP4rcG/1DP/arljm3cMPiEgHpN/1Q68C8l2Q+TUXTV8NpUbudLR5MjP3ns6xAmPtwYIF3F+Zr5S2Yd9zRktMjr7YWhQl95MrRDSVYBY3V6Y/SvyHz5/AhsaQydgvncYjT3Viq+N3BXALyb3H8WDdcWzYm8SDz57AAU30RNYyg1g0QN0fdmZrMkWsnnKM+tbOD2yeO4WH5p/AEW28p8T5o/VnC5yz029y90Uum0rR+StRMkXS9YnYJR++FLslc8bhGyXfa1Jq9smM0Oxe//A6tKzVR2lmb5hcWxJGwpZSSzgcwuZiENuxwIjgClRF+aPsqHmqmrwJMrNkqq3eORG08YfffgDqguiK2zp/7PTaQF9Pu0kvIBSBh6lF0TGPZ64827VVVmzmxzJwVgl0bY+2pF92xR8V0j2Jul7mTL/LQiTAsc59Ns4cg8TKyT9d5MA9Yd1X2XyaUuTNr2pPMprBGLdkAiiVRX8Xmp/Mt8xouoyO74XrR2SWjVYLW0g6inV1PRL2NFuF3F8Z7tqGs/bWL19oE74WXDZLaS5XUUURzdIEE8DxJCrn+2IYXnsnI8g70PCNylnwXZqrpSn4oXfNJmuRpvvVD+hbWpt7phk4PSDn+VOhAykDqXnzUcrgGOvC377o1bq6J0QPxOLvkCb32VYfTTlSbP5sySyoufyKN6H7gvZsNX9W0t2SKQIax71GycwjmYt+/gr++qcWXLlg3XQh95W+W8JIWIljOMhisXnUy1yubXtAhjxI7EEZ7rS70DjZehB7NaCOPpXq4ZLrXZdMAK4R6eohN7ZmGRLS39OOz4ojIBSOh2mgbGd2Y15NsEZTpa2/FyKZ8XM2c97TugxTXM27BqNgTSaQQmJV+FrtRUkmAFczvrAz5sY0i+B/KhN/lVTgnjD42PezfB6DSbPWudfbVpE6+jDa90bw+muilonH2iiVRX9PcJUqV3ld34tUAg2h3wMr75LOqqmR1i6f+HQTkq4/+aVKpvzN2Gyv2CXXL7gKkEU58zGOB79Elks0SxZMAHrfw1DJzFWTefuqN53Rj+qTOHLuPBpebMeDW7/N1ibKFDxeU7QMaNFqQ0Xi1GAbryazA8uOR1gRp+8sFjwbtrIOAE9A2/FIiym7mQujb6Sl9IdWU7l3SjH5u30VBxo78eCLfj9RPalI28eT+FG6j6k6P9unVSQzOI8mJTOPHBYrTHq4+RNWoXH+e/judC/u3L6jrk3kdwkjYSUOiUuPeyRtRwZSwolBUYw+EjU4CrYCE9YcDE667nqw2fssQZQi9bQ1YckT1ZmH173VU7FocyLd37BMkikJy8oibU1YPmcqJv1EF06/aXXmwnVoasuuGpQfv0vIS+WsLfepMtDfg8S2ZZj9eA28ZtA043ura/DYnGVoanO2nXmhew6uw+zHs6yrxv0Yk56ox75z6cgLlQBr4IUv51En7o+bvwLk6pMZFMuxP6nBpCfqsH7bIWSW1cxG4dgK3ouxSKakFMe9eC6BphWz8FjNj7UmdLmXp2L2iiYk1DW2SybyuHYWHvOWJPU5CZuZS+0+nOmA5zrQvLkOMx/W7qPKMXigxk+n9WS2S4ydlGuezMwPnMDJITtcrQWuAYkhweOSTIneJZpxCKaXdanJm9OJhq+uIhlYu/wWrp/txjLpk2mL2K0rONZ6Ag/98ShmtJzPTmd0y+/D+eBO9ffhAhqe68CGs99isdSYqp5sUoOaqb3sR++nJ/DIs+34oVXzl+232I/eY0k8NOcofrtfm37Ixf/iGfx+fjvuX38m01fUOC11Gcdak156dy87iWNa837mvELz13MWi+ul/+k14NwpPLIiiQNnr+G6Km8m4vRG6hp6+66i9+JVX8jTcjzjsParyVtRSU3AzprMQZEzkcI3nt6Jr458482DaV/HqJ9lHk2JQ+IaqaIZlQXPIwESIIFRTyDQzSbij5o0uDglU6LURTM2wVQX+eJZLH7BF7xH9mir1TzVjrvnd+C3b2UH9vhB+pH88Et/vxogpOKS99s3tNWCgOvtJ7xBRfe/pS17Kc3KhfTDPH8aj0i/z5OahOlp2tvXe9CwLC19xjF/HfH/74UvsaE9x5xHBebv+uET+P1hbRWmnrNYJqP05wdrH6VbgbfCUt1R3L/R70N6XebuzKyoJCPM/XD3Z/Zdxo41x7FDubsMY9p/HDP2X2ZzeTlrA9c+uQ1HPz6B1Pc3jduomA8Sh8QlcZYzz4MVdzFMGIYESIAERiOBQBeNCHNj6pzilkyJW0RTlo6UUeTFDfLRc8jtkUIgjnuNfTIdze4yz+Xhncdw9dL3sd0rEpfEKXEPlgyWK93YIDEiEiABEhjJBBwDpaboa6NHKHscD35XMiKaFEwXmdG7L457jZJpSeYLk1/H/jc/xeXzEToKF3jvSZwSt6RRLuEbjHgLxMDTSYAESGB0EGhbjSlz6v25fBfPCs5pOq4O+yK20ipg8uDnPzIYqHtA3XfFvlMyNclc+NAavLvqAHq6cvSnKJZ0OpzELWlIWoMhhOVIs0QkDE4CJEACI5NAW721Prs+gCtsPtORiYKlGp0EKJlpyVzw0wZs+ONOfPdNb9nvBElD0pI0yyF9Ax1n2YExARIgARIYjgRCJbMa83bJbL18kcDIJkDJ/OeV3qjvV2a+hQtnLkWeqqj/1m3cvHELqes3vaUkb93sx5070aY5kqmNJC1JcySMOB/ZXxGWjgRIgASKJGBLprfC1Sa0hk3HVGQyDEYCQ5XAqJdMWfZR+kh2dX6L/pvZ2fDzXbDTR7txaNvn2LPhE+zb3IZj+5O42hu9c42kJWlK2sN96cl8rHicBEiABEiABEhg9BEY9ZL5wq9exxd/OwWpicz3UpOrb5r3rieHi/7tVdRNfMVb0edP/7HWGzn+8aYj/rRHESo1JU1JW/Iw0E3ccaaXjxuPkwAJkAAJkAAJjD4Co1oyX/zNG15tZJS5MKV5/FyyB2uffNsTy2cefDkghtL0LcL41pIPvab0KLeTpC01opKXOMVvIOOKUk6eQwIkQAIkQAIkMLoIjFrJXPzwOjSv3Bd5TfK+nqtoXPAeFvx0NeY+uDJUCKXp+/ma19C2qxM3rqUi3U2yxrnkRfI0kHIYV1qRCsmTSIAESIAESIAERhWBUSmZz096DW+/+BG6v9LWUcpx2UUWj378VeRph0Q0X5nxFi59G32uTcmL5EnyFpf8DVQ8OdDxEAmQAAmQAAmQwCglMOoks27iGrxZ9z6+/vxs5Evee64PO/+yryD5W/CvqyGDg6SZPepL8iR5kzwOlCDGkU7U8vE8EiABEiABEiCB0UNgVEnmvH9ZhfWzt3uDbQqRv/OnLuKNp5sLFr+O/ScLWvtc8iQDgSSPktc4BHAg4hg9XxeWlARIgARIgARIICqBUSWZK//3Fnz2wXFvbsuogOS8819fxMZn3i1I+kQSvzryDW6lbhWSlJc3yaPkdSAEMY40CirgYJzszVVXi6ZhMzddD5pq0yuDLE0MBjGmSQIkQAIkQAIlExg1kil9HY+814HrV24UDE36Vu5q+Ftk6XvmwZWof3idN+F6wYkBXh4lr8Olf2YxZSwmTGKpL15L2nKEPteEaZUVqNLlbJhJpldOPf85istDJEACJEACJDBUCYwKyZQR4Xs3HcHl764WdR2+77uBI+92RJbMeeNfxhtP7yw6Pcmk5FXy7I1m19ZXj6PmMe44ioJaRCCRr2m1taZAWvH0bKv11woetpLm12JO26YPSnPtswrOjyRAAiRAAiQwxAiMCsls/st+f6R3hAnSXdfnu9O9aHx214BKJu7Ay7PkPW4pjDs+F7Ny7PNq+GprMa0yrOk7gSWVtViyNLeIliNv8cXpEkrXvvhSZEwkQAIkQAIkUA4CI1oyZYR344JduNh9Gbf7izNMEUwRvWd/1lCQ7Mn5by/9qOgmc7nYkmfJu5RByhK3HMYVXzluTFecqhnZq9E0avrSZ0uzeG0TElKbqddkes3l9TB7N4qQpvs9eu9KXJXQJTL9IrPN8/6xKi1c9lg6D6q5Xp1T2wSjTlLVtKrjej7tsJUVWPJBuvlfnV9ZAbOW00WK+0iABEiABEhg8AmMWMkUKVv1X1tx9svvCppGSL8kIngfrv+7N7l6MUL23L+vxYGtCchE7sW+ZMS5lEHKMlRFs9iyFRpOSSY8GbOl0RdAkT6vyVyXN1sy0zKny1rPtvr0wCAlkko6VS7TUqrHG4jHPycrnj1oWpqVTC//lXq+02kZIurv0/MGuPapfPGdBEiABEiABIYmgREpmdIncvljjfjy76eLFswLZy7jo9cP48Vfm8s9Sg3lO3/egy0Ld6H+l/4KPbJv1bStaP7LPu+YXuu57D834eBfE7h0PvrE7PatIqIpZZEySdmKEd5yhrHzW67PGclMS1dW5gBPPNOylk8ys/G4cpoWP10mkRZXQwb9sF5aar8nnbacptMIOxbY7xJK1z5X3rmPBEiABEiABIYOgREnmUowW99pL1owZaDP/jc/xUuPbDSEbv6E1Z5Env3yPI7tS2L17/7qHZdR4DtW7MV33/TizPHzaHr+A8g65krsVvyvzfj79qO4dvl60VdeRFPKNBRFs+hCFRjQkMN007hqipZjqvYvt2T6wmYIqpEPt9Dp8Rune5KYrZ308ihN25akwspvNg47P670XfuyMXCLBEiABEiABIYigREnmX/+zRv4eOMnuHapOKGTKY5kJLk0TytJlPeF1Wu8tcu7v/Kb38991YPXZr3jnbNk8uvY88Yn3vW9dbMf33ScQ+P897wwKo41M97CZy3HceNqtPXMXTeLlEnKJmVU8Q6Fd1dey7HPkEyvNlPVGkozdVb0BlMy/XL7Uuj13VSyScksxy3BOEmABEiABIYwgRElmdJ8/e7L+3Hh7OWikIsAJnZ/4QmmvuLOop+/gk3z3sU3x87hzm1/AFGYZErCco6cK2EkrIig1Gy+9tTb6NiXLHiCdr0wUjYpo2qqH72SCXi1g0sTXh9MVYsprHJLJmDKqk7XC+0N+NHjy8SpmsW1IEZzubbf29T7ggaaxdMnB/a7ai1d++zE+JkESIAESIAEhhaBESOZInPbXvgIZ098VxTh2/230XnwpLfSzrx/yfZ7VIIp65Drr1ySqc6TMAHRnPUOvm4/W/Rod4lbyihlVQI72KKpylvu96AcSg1mLabVZmsxJQ/5JNMfOJRtXvfDmAN/bMkEwgf+ZJrezzVhiT7qXZdMpOVWq3FVA3rMpnW3UAbLXm7ajJ8ESIAESIAESiMwIiRTagllbfFkW1dRNKS/47cnL+DV/7PNmKpImshFEm3BlESiSKacJ2HfmNucibfuoTXY9My7kKmRVK1oMZmWskqZ9b6fgyWbxeS/mDAu0QoIZRTJlMS9GkRtCqNMLaVb8vz8pkUzM52Qaq5Pl8aO0xDKdAzpVYvUNEhBmQ1JX4s7GCadPt9IgARIgARIYAgRGPaS+Ux6JLnUQhbzkhrMntO9eHnam4awibxJv0pp9na9okqmhP3ib6fw2lPvZEaGy+jz9bO34+rF73HnTnHzd0q8UmYZCCQMBkswJV2+SIAESIAESIAESMAmMOwl88+PbETngZO4deOWXbZIny+evZzug2mK2pa6970BPGG1jYVI5u3bd/DZh18ag4nqfv4Kdizfi9T1m5Hy6TpJyixlFwaUTBch7iMBEiABEiABEhgsAsNaMqU5W6YGutr7PWQZxkJfPV2XvFV55lur6fz1Ty1eM7eMFA97FSKZEkfq+5v4/KMTmWmPnnnwZSz6t1e9QTxXLl4LSyb3/jvwyi4MhMVgiWbuTPIoCZAACZAACZDAaCQwrCVzb+MRb33vYpaMPHfyArYv+xh/+o+1hpw1/HcTvjh0Cjfz1IwWKplyc8n0SO17TkDSUEIoc2zua2wrelUgKfulb69AWKg4B/p9NH5xWGYSIAESIAESIIHcBIalZD5b3YDty/ZCmrqlT2XYSwRMBth0HjzlLc0otYnykkE+7646gMW/8FfsUVImk6uLBMpk7PlexUimxClxSxpqIndJW5q7D+84hisXv88kK3m9cOYSvu/LP9+nMBAWwkTYqPIM1Hsm09wgARIgARIgARIggTSBYSeZIlHrf78d57++GCqYImhft3dj9yt/g/StfGXmNmya9x52LNuLvY1t3qo9S3+1ISNjMiemTL7++UdferWNUe6OYiVT4hbRlAnf6x9eB2k2FxmU9PdtaUOi5biXR8nr1ud2Y8eyj71lKWXaolup8OZ7EU1hImwGWjSj8OI5JEACJEACJEACo4vAsJLMhdUNWPvkNm9Uddhlkv6ZUlMoUw8t+OnqjEiqWr0/1azFc//+amb/gn9djVXTt+KzD44XNAinFMmUEeWSz4/f+AQvTH4dal7Olx7diJW/3QLJo8qvjBxf8sv12PqnFq9PZ76VjGTEuTASViqOcr+HXQvuJwESIAESIAESGL0Eho1kyuCc1dO34tP3vwi9Wjev30LH/iRemfFWJMESwXy59k20vd9Z8JyVpUimFEBEM3XtJj5Y14oXf/0G9BWGwqTw5WlbcXTvV7ieZ2lKYSSs7AFNYfGWuj/0ggzQge7us7GlFGdckqk444szrrjzFtsFYEQkQAIkQAIjhsCwkExpUl72n5uw/81Pc05VJH0t3176USTBFLGS5urdrx4q6mKWKpkqURHjNxftjrx6j9TQytrouV4ytZGwEmaqOb5UkcwVPldeBuLYm1saY0smzrgkU3HGF2dccecttgvAiEiABEiABEYMgWEhmTICW/pX5hsEk2j5wpucPJcQ6ceWTtmAg02fFXUx45JMSdw1yl3Pp74tE7l/0nwstD+qKoywEmbCTg9fjm2V5mC8n/76FF57dQ3kvdRXnHFJXuKML8644s5bqdwHInzPthmY8noHUpJYpmtzD1rmT8b6o3HnwF4ZqgKy9Ki3YlVmtShttan0vszypJnsJNE4dTIai1tnIhMLN0iABEhgsAgMecmUZuTmlfsjTfHz0YbDBQmVzFP5Vv2HRbGPUzJlsI6r/2iYEL63+iB6z/XlzXdfz1WPXZSm+LC0ouzPm5EynrBv78d4t3kHGqXx8wAAGLpJREFU5L3UV5xxSV7ijC/OuOLOW6ncyx++D81PTkbjaT+lrq1TMWVjUhYgRVOttTRoWGb6e9C6uQ4zq++BvyToPZj4+Cysb+0JC5F7v6xrvzSR+5zTmzCltglN1lKkaknSwPuTO1FkbnLng0dJgARIoEgCQ14y//r8Bzhz/Hyk5RcLlcxnHlzpDbQphl2ckvmX/72lIDl+87nd6Pri27zZln6fwk4YRpHFYs/Jm5EyniBNyFeuXImlWTrOuKTIccYXZ1wl500ESauRC9bA2RfcqtnLJ1fp4N669Mb67/667pm0M+vN2+lZn0XWntwJ/2dZH1pmKeGMKJlndmNedTXmbetAX99eLKr0xbTvaBPmVY/BtG1dRoLOGsulCfR8MAvzmtM/DnXJlDif3h0QxOTGyZipzteYKN6JpS5BTjOKyNjIOD+QAAmQQMwEhrRkvjG3Gcm2LuRaeUfnUahkyqjuhv/+qx5F5O04JXPF45sLkkCpfe0+Ea3OQtgJQ2FZrETmCxcZWgknXrhwAee6u41/J748jre3NXmxyrt8ts+RcPYrzrgk7jjjizOuuPPmcfQEU5Mb+7MNG75gTtum7lf7cyCAv+NcE6alZc7fYcuT/TkkHqSwb2E1GlSTeO9OzJy8Cb4WRpDM/g406CLp5asemTrIM5JPJa1heUjvT+3FIpW2Jpl9zTMwZbMpqri2F4uq65Hw2vez8Yp455ZMOddnrM7LhuYWCZAACQwsgSErmarvoaySE/XVtqsTf/7NG5Flqm7iK3iz7v2o0RvnxSmZa//v2wWNBH9/zd9w6fwVIz+5PghDWXoynywWezxX2nEdS6VSnlBu3LAerYf+hk/bjnj/1IhreVf75LicJ83oEs5+xRmXxB1nfHHGFXfe/OblCmSF0Sfr1dyF1Jx5tZF2jaMnppqo2RdIGrK31ZrNya4wARENRpRqq8dETVa7Nk82amEztaKZmlkzXyKAY2ftTteCAjjThMfGr0anllRi6RhM8prf1c60AGfinIFmz7FFeMejQQJnJLMLjVNnoaVXhfXfO9dUo8rmluai5NFdk+mHd3I3k+AnEiABEig7gSErmdKP8PU5O9B54CRu5JmyR1E6K03Df2qJLFN1P38Fm5/dhcvfXS147fNSJfPOHX8984N/TWDprzdg3nh/UvZ8oidifHjH0ZwTsyse8i7shOH62dsjc8mXB/u4nl65t0UgpdbSVUMpacv+d7Y1eSKaLy9xxiVpxRlfnHHFlrcQqQsXGl+2bClFSDzZ6+WHUzIl+90im6fG7loCS2pqMU31uwzUDuaryZSm9TFYdFD7oSJyaMlfal8dqnQRzRYksNW3ZzXWd6ayknl0HR5b22Gcl/psGSY+XINJKh1PsIMDhUxB1mqXJba8jI0k+YEESIAEykJgyEqmiMz8CauwbtY73uo4UWrublxLefNoLn+sMZJQSfyypON7qw54SzjmWqLSpl+KZPbfuo2erkv4cP3fIROwSz5scQv7vHnBLnR15u+PKfkVZrKykDAsJI2wtMP222zK/VlGWksfRXnXX2H79XPs7bAwYfvt8PbnsHBh++3w+uewMGH79bCu7bBwYfsDcbhqE+WksP2hzbZ55NATJL1GMURWvYE7wZpVP9992De/BkvaUvBr/FLoXDMZs3fpA+bySabkcxZatCCBGlZVfiWEXuJ+frMSqGoy/Zx5/wszZ+1vEusn16KptQnTVJxt9ZnaY0lfyXe2JtNVjjyMtaxwkwRIgATKRWBIS6ZIjcjRy9PexMebjuD8qYt5Ocio60PbPvdWvXGJlYziljXLn6/xp/aReSQX/dsr2LF8L75uP4vU9Vt505ATipXM1PWb3jyXMmJeVh5S81j+6T/WQvpm1v9yvVM4pSyyks8XfzsFkel8L2ElzISdi0OYMBazP19eynFcmsaltk9/yWfZX+grzrgk7TjjizOukvMWJpNh+4uVTIlPCZZ3MYuRTCDV59thRsYyUxepO8QlZ+qYqg3UZRdIrJCBPqp/afrc0PLbceWpjUxLZ19fyq+JVAyKkswwZlqeuEkCJEACZSYw5CVTSc8Lv3rdm45HmsTz1TjKijhf/v1r/PX5Fkh/R5E3qd1c80STN/F5y9pD3vrlEqeKX96l6VwkTpZuvHP7Tk70xUimrFl+vNXP17PakpeSj3f+vMeb/1Imh3/1/2zDn3+z0Zvjcsnk17Gydgu2LHzfC5tvtR9hI4xEYu3y6WWNczsnqDIdVE3m0odRpveRd2kqVwOBCkk2zrgk3TjjizOukvMWJlNh+wdZMtU9oCTTOeo7029SE0Ald4Ea1S40TU33qVSRy3tAiv1axGxNptWUrcI4azLTEUvaKh9FSabfxSAgxHq+uU0CJEACZSYwbCRTpGjRz1/x1iSX5mJZKUf6NeZ6iXB1f9WDRMtxtL3XiZOJM7h2+boX5IJqrn5ko9EfsuGJpkzzfC6ZLUQyRVivXvzeWx/9tafeyYitTKEkS0pKs/mlb/2BPKnvb3rN4dJXU0RRjslSkiKoucRXWAgTYSOrAgmrOEUyV1y5rkE5jqkpi2SwjzSbi2TKQB/1WY5HfcUZl6QZZ3xxxhVL3kL6+cXeJzMgbUX2yUzfBEoyg/dEnprMvt2YrU+hJJ/H1aHVakhIbqxB1cK9/kTvXiIimdkaUGf6UkZKZvCScA8JkMCIIjCsJFNER5q7G/67CScOn4aMmpa5IIt9yaCYY/uS3vKLso753AdXemK25P9fjz1vHMbFs5ch/Sddr6iSKaLa991V7N/S5qWjZE2asKWmMbH7eKTmb1ce1D5hICyEibApZGJ3lZ9S3lU+BupdpirauqXRE0w1AEjeRThlvxyP+oozLkkzzvjijCuevLn7+UkNYViNmXPAjkMijevlOO4U2UBNoxFL5oNT8ryjeSQTHWgYn62F9EaaP3dIk0lZPUjOsQYHeTW4gy2ZbC7P3ADcIAESGDQCw04yRYa8fpQ/fwVH3uvwaiZL8ExPIs9/fcFrSpdpk5Roiqi9Vf8BZD10Vw1iFMkU+ev5phfb//xxpg+o5F8E8y+Pb/bivp2nWT7fnSFll9pZYSG1l6qPZynSWGjYfHmM+/gHLe9D/kkTuf6Sz+qYvj/Xtjo/jrgknTjjizOuuPLmyZ5WSxcY9OOJn7+Mosfd/hzahK5dJac8+oKbldnoElW8ZAKdq8ZjyutJoF8G5FT70w+prPb3oXVpNcZOb0KX0d9zKNRkun8QqKzznQRIgAQGgsCwlExfNFdi4UNr8O7LB3Dh7OWSWInoSa2m9NWUQUFKsqR2U/p0fnHIHMUsiUWRzK8/PwtZMrLuoTUZ+ZMpiBoXvIfvTl9EqYIp+ZCyCwNhIc3vKu8D+V4S/AIDiwweO9qeM5QMlrGl0RUgzrgk/jjjizOuuPPmi6bqw5itsfMYB6RSDaBR52sC6roo3r4wQfL3q76OWeEMjciPbWlNyPrf+WoyAVzrwPrH70HVuB9j9uZkeu3zFLramrDk8XswtmYZEtfs9M18VmnzdGbOLLC5XJU5/D1b4+ql4V0Ha18mcW6QAAmQwMAQGLaSqSRKRmg3Lf4AX7d3o/+mu2k7Ksqrvd/jk+YOrPqvrZkR2VK7KZ8PNn2Gm9/fzEQlA4RWTd/qSZ3UTK7+3V+9vp/SL1KayGXqIBnZLeGV/Ekz/Lsv7/dqN3P198wkkmNDyipllrILA8VjMN5zZJOHSKAoAs5m9qJi8vtzqml/zCgiSKYZwPsk82I+UD0DS5o70GfUYKqTE1j/8LrMqkBdH2xCQpsGyTurQMnMLdR+OfwJ3/08OLsXqOzxnQRIgAQGiMCwl0yRquf+fa03cfvnH31Zcv9GGVl+/NApbKl7PyNv8/91NV76z03YuWKvJ4gyKEdGgEutpJK6Z6sbvBHsWxbuwgfrWrFsamNGVOWcl2vfhIS72H3Z2fxeyPWWKYykrDJZvZRd5WGw3gvJO88lgUgEWBMXCZP7pLCaYPfZ3EsCJEAC5SIwIiRT5EokT9YhP9iU8FfwKYGYjPD+5tg5r9Zx6ZQNnsQ9M/5lr1/lG083exOoewOF/tlsnpb+kFJz+cLk1zPN43LeazKh/HudJedLiiSrE0kZpaxS5sESSz3dElAzKAmEEgj0/ww9kweyBPy+qjlHrmdP5hYJkAAJlJXAiJFMkZ55//Iylk9t9Kb9+e60tRhwgRilOVsmNN+3uc0TOl2qom5LDaisjS7LOkoNaakvKZNMaSRllLJGzUe5zyu1XAxPAiRAAiRAAiQw8giMKMlUMrXkl+vx7sr9Xp9FFD/DkXe1r1y8hrZdnd7UQCr+qO9v/HEnTiXO4OaNaKsIhd5ed+CVRcokZYua/kCdF5pvHiABEiABEiABEhi1BEakZIpcyWjrN+Y2I9nWBVnKsRTZvHLhGvY2thUsd4d3HsP36cnfi7rD7sDLu5RByiJlGihxLCSdosrGQCRAAiRAAiRAAiOawIiVTJGkeeNfxkuPbETH/iSuXvq+6CmD+nqu4qMNhwsWPAkjYYt5yfRGkmfJu5RBylKI+A3kucWUj2FIgARIgARIgARGNoERLZlKtKQG8O/vtOPy+St51z13Xe7eb/vw3qoDBUuehJGwhb6kP6jkVfI8VGsvFVt554sESIAESIAESIAEbAKjQjJFhETW3nv5AM5/fbHgpvPrV1LeHJi6WEXZljXTJWxBrzvw8ih5HQ6CScks6OryZBIgARIgARIYNQRGjWTKhOgyvdDGZ97FV21dBV1gWR5SRnbLZOpRlm2Uc+RcCVPo2uqSN8mjPol7FKEdzHMKgsmTSYAESIAESIAERgWBUSOZSsKkdvCVmW/hk+ZjuJWKPur7+pUbOLD1U8i0RCqusHc55/COY95SlVHvIsmL5EnyNlxqMFX5o5aR55EACZAACZAACYweAqNOMkWMnv1pA1ZN2+rNgdn3XbSBOdJP8tL5K3h/zd+w6N/cyzjKhO31D6/zzum7cC3yyj6SB5mPU/IkeVPyNlzeR8/XhSUlARIgARIgARKISmBUSqbIm6zEs+w/N3mr+nx76kKkZu07t+/gwpnLaH37c2yc2+yFr3toDeTf8scasWXh+zi886h3jpyb7yVN6ZK2rGcueXGtIjQcRDNfOXmcBEiABEiABEhg9BEYtZIp8qaWimyq/8CbT/NWqj/SHZD6PoVTn53Bp7u/wP43P/X+JT447i1FKceivCQtmf9S0n6+5jUvL8NBKF15jFJenkMCJEACJEACJDC6CIxqyVTCNH/CKmz44050HjzpTZ5e6GCdQm4ZiVsmaJe0JE1JW+VjuL4XUn6eSwIkQAIkQAIkMDoIUDL/eWVG8tbMeAtH3u3ApW+Lm08z3y3j9ev89oqXhqQ1XKXSzne+cvM4CZAACZAACZDA6CNAydQkU+TphcmvY2/jEfR09aL/ZrTm8yi3jcQlcUrckoYtasP5c5Ty8xwSIAESIAESIIHRRYCSaUmmyJ7MUbn9pY/R/VUP+m/dLvmOkDgkLolT4h7OQunKe8mAGAEJkAAJkAAJkMCII0DJdEimEinpM/l1e3fJF13ikLhUvCPtvWRAjIAESIAESIAESGDEEaBk5pDMBT9djVX/tRV/33606AsvYSUOiWukyaUqT9FwGJAESIAESIAESGDEEqBk5pBMkSiZu/KlRzdi1+oDuHk9+gpBcq6EkbDDdf5LJZH53kfst4MFIwESIAESIAESKJoAJTOPZIpgzfuXVd5KPk3Pt6Dnm17IKPGwlxyTc+RcWf1HwuaTtOF+PIwF95MACZAACZAACYxeApTMCJIpEvjMgyuxsHoNtj63GycOn8aNa8FJ12WfHJNz5FwJM9wFMkr+R+/XhyUnARIgARIgARIII0DJjCiZSrak6fv1OTvw6fuduHLxWoarbMs+OTbSm8cVC/WegcANEiABEiABEiABEkgToGQWKJlKrGQwz8G/JvDdN73eP9mWfer4aHofiG/T5+du4H++9BXueqqd/waRgVwDuRZ8kQAJkAAJkEA+ApTMIiVTJFImVd/5l33ev5E2wXohkpzvJovjuMjN//j9UQrmIAqmCL5cA7kWfJEACZAACZBAPgKUzBIksxARG8nn5rvJ4jjOGsyhVYMbxzVlHCRAAiRAAiObACWTkllyE/9AfEUomZTMgbjPmAYJkAAJkEB8BCiZlExK5iA3QQ9HgY7vTxBjIgESIAESGKkEKJmUTEomJbPgvq4j9Q8iy0UCJEACJBAfAUomJZOSScmkZMb3N5UxkQAJkAAJpAlQMimZlMwiJXPGV7dw/WoKO/YkPUnzPqdu4cj+0wVLm2oyX3xWvpl3cODDdsxoT6G37xoWvza0+mNKXvkiARIgARIggXwEKJmUTEpmUZL5LQ7Iok+3r2PZ8yKBZ7CjD0DqGhZ4n4sTwxlf9QPoR8v2dty98RKO3QJw/iJ+VFQei8uDEt5c7/n+sPA4CZAACZAACVAyKZmUzCIE7u79172/Hr1fdXu1lnfvvQ7Zc73nKjYcuWT+67yGY8d7cL9Kp/EiDpy7gWOOf8mr/h+l3p708Yu3kDx/A8dOXsQvVPgh8M4/nSRAAiRAAiSQjwAlk5JJySxU2p7vRovnmClsXdOOuzKfc3zdrl/FDJXO9qvozXGq85AeXsUziO/OPHInCZAACZAACWgEKJmUTEpmQbJ2HH6TtnyLbqDhqezn7mNn0HBe7c/RVK0k8/zFQN/N3x6X5vI7ONCSI3xB+S1PPNrfEG6SAAmQAAmQgJMAJZOSScksQNoePHzDaxb3v003sLU1/fmqX1PpS+YtHDCazM/jET0NJZmpW0aTecvek7jrsL8u+LHDIofnceD6HXR/PbSayjnwx/m3lDtJgARIgAQsApRMSiYlUxfAnNunsKEHwK0bOHZJvkk30PDaJSRv3cKOLX6NoS+Z1rfMq/HUahSVZFqndR/7Bnft9JvSpa+n3e8z10CcgT5mZZ0fSYAESIAESCBAgJJJyaRk5hRLTQ7lvF2XsHXncaNZ/O7nj2eavQtpLleDhu5KS6dXe/n8JSTla3rxGg7IIKDbN9Ag/T4LyeMAnBv4S8IdJEACJEACJGARoGRSMimZRUhZmEyG7TckMS2VvcfP+vLYqjeRf+NPhZT+oko/TyNsEXktR3jr7wg/kgAJkAAJkECAACWTkknJLELcwmTS35+nT6bR77Iddx+RCTf70bLTr7H8hTc5JoB0P89ySGKpcQb+knAHCZAACZAACVgEKJmUTEpm7JJpfcusPpmZCdc/u+IN/Emmp0PaIM3ir130J2CXKNS0RW9fQsuRs6gsIp+lymRYeLuE/EwCJEACJEACNgFKJiWTklmEvOWuyZSpjcL6UaZXCpKVgRqvoDv9jew+3o37d11Bt6zwgzvo7rvjHZF+m5XexO/+KkBh0jfQ++0/JPxMAiRAAiRAAjYBSiYlk5IZKoRhothuDPzRBS9MPtU596ebyq+f/Fbra/kNGr6+lZ4aqR9H9p/CXc/34IgnnOmv7O3rWFxEPlW6cb/bf0j4mQRIgARIgARsApRMSiYlswh5C5PJsP0ZyZPVgfpSmSmP1P7KPdfQffEqFm/MjlS/e+MFHPGa0u8g2e4vX6nOH+x3+w8JP5MACZAACZCATYCSScmkZBYhmYMteYOdvv2HhJ9JgARIgARIwCZAyaRkUjIpmVrTfXgXAV1s7T8k/EwCJEACJEACNgFKJiWTkknJpGTafxn5mQRIgARIoGQCsUhmyblgBCSQh4Bei8btaLWN5eSU53LxMAmQAAmQAAmAksmbYFgQKKcwMe7CpXVY3DTMJAmQAAmQwKASoGQOKn4mHpUARbBwESwns6jXjeeRAAmQAAmMXgKUzNF77YdVycspTIy7cIEdVjcPM0sCJEACJDAoBCiZg4KdiRZK4H++9BX+x++PFjxAhQJZuEDmYibXQK4FXyRAAiRAAiSQjwAlMx8hHh8SBD4/d8OTm1wCxGPxCqWLpwimXAu+SIAESIAESCAfAUpmPkI8TgIkQAIkQAIkQAIkUDABSmbByBiABEiABEiABEiABEggHwFKZj5CPE4CJEACJEACJEACJFAwAUpmwcgYgARIgARIgARIgARIIB8BSmY+QjxOAiRAAiRAAiRAAiRQMAFKZsHIGIAESIAESIAESIAESCAfAUpmPkI8TgIkQAIkQAIkQAIkUDABSmbByBiABEiABEiABEiABEggHwFKZj5CPE4CJEACJEACJEACJFAwAUpmwcgYgARIgARIgARIgARIIB8BSmY+QjxOAiRAAiRAAiRAAiRQMAFKZsHIGIAESIAESIAESIAESCAfAUpmPkI8TgIkQAIkQAIkQAIkUDABSmbByBiABEiABEiABEiABEggHwFKZj5CPE4CJEACJEACJEACJFAwAUpmwcgYgARIgARIgARIgARIIB+B/wf7TfqjhjsldwAAAABJRU5ErkJggg==;imageBorder=#000000;" vertex="1" parent="1">
          <mxGeometry x="300" y="170" width="467.13" height="170" as="geometry" />
        </mxCell>
        <mxCell id="fsJKned1fW-X0qUgyeQ3-5" value="" style="shape=image;verticalLabelPosition=bottom;labelBackgroundColor=#ffffff;verticalAlign=top;aspect=fixed;imageAspect=0;image=data:image/png,iVBORw0KGgoAAAANSUhEUgAAA0sAAAHYCAYAAACcKXOyAAAgAElEQVR4Aezdf3AU553ve07V/X/3v+t/7h/7z6lK1dkqSedWSTHlOHY257hCec/KnEpE4ivj4ypYEmlxGeJrCBtzwDbyGilKjuDGSKxZMLZwikx046CEwCYOCkSy18pQYKmADA4WhuCxIeOwZK7l+t56+ufT3U/P9IxaI83Me6pUmukfTz/Pqx/s/ujpfmaF8EIAAQQQQAABBBBAAAEEEIgIrIgsYQECCCCAAAIIIIAAAggggIAQlpZTJ/jkhgw9f0F+cms5VYq6IIAAAggggAACCCDQnAKEpeVw3rWQdPPUrLT+4A/LoVYV1uGWHO4/J984c7v0fp/+Wa69nZOht/5o2O4jOfzCOXnmHcMqFiGAAAIIIIAAAgggUGOBBYala/LMU+fkmXMLr3XupzPyjV9/vPCCFlLCuUuy4qlLcjpUxrWTM7Ki/125Flpe8ceY8lU5KiR99ugNkeL78q1nc/J2xYUv9Q52WAr3hTuFP8qdTz6RO+/fkKPHLspXv31OPvOdi3L4tx/KnUiVVRkzcviGv+L04XOy4qmYn8MLPiP+gXiHAAIIIIAAAggggEBIYMnD0jvHnJB064o8tj0nb3/q1PCTO3Kz8Ce5mc/L6d++Lyd/e1UO/+iS7D5ySb71/Rm5f9d5uf/Zc3KXIdyIfCLXzr0rzwydl89sdS60t52Xh76fk5P5T0IE2seYMFOLsGQKSdZx44KCu/z778lNrQlJ3s7Ozso///M/J9m09DY33pWH3HoYfj908pa4bfhs/wXZffJ9eedWCX8xh6VwAFOVssqtMCyl1u6wiuuQRqAOl12zz3bYXfFUMKwu/PD2H1RUX1j0l/Xv1xysTX1InPNmXLfolV1eB1i0fxvLq5nUBgEEEEAAgYoFEoQl+2In9q/7hovkFcaL2Nty+sh5uWvreXnmnHarlheS/iwnD52XoQsioi56tp6zA9GuWdl0RIWknByeel9Onros39o7I/er0Ympa/JOPjQ+cScvI0Pn5K5nL8jIb/Ny9F/OiVWf4h/l7ZMX5P6t5+Ubv/7IDLVUYenTP8rJf5kJuphr6C/99H351lPn5KHjMW3xtzS+279/fzqBSebl5u/+INeK7mH+JG+/9b7kCvPWgkShJuYiV13Epj2ylF673fY6wa1/Rh5KPWj4x1j0d1ZwmJGH+s9JtcHGOteRwFjrsGQIe26YDf9hpeZhKb2R+MXoD4vxb2Mx6kmZCCCAAAII1FIgQVgqVZ3k//O/c+6StG6/KCcvXJaHtl6Qk17GsUPS7nPe1XbsAe9cviyPfXtGdr/zJ/M2n34kh797Tu767ruScwYwrIttLbypenw27qJ2KcJS4Q8y1H9OVuy8IEffLzXqEmryhZy0PnVedqtwWeUrrYsjdZH8pWMf2rVQtxFu889vorDk1X9xR5bcw6TVbrs8e0TmmXP272qDhlu3pfrtnidz4ElWq4Xsm+wIZbay/v0awpK1mzNyFglzZcpMdXXy/16metgKCkv330YFB2ZTBBBAAAEElqlAjcKSfiE5L7nXZ+Sul64anlkpoXT9Xfnqtlk5fN0esTBtefPXF+Su7RfltBfE9OO6e3wsR4fOSat6Pki9vL86m2/fMY6oVXvBFQhjn8i1qYtyvxpB2/+uvOPV2a1n6d+518/LCv22xdKbx65N5eLo1jU5/Ou8dT7VBbMXnCq+XU6dr+DFrgq7ptuk3Iv72IaVWZFKu9UxtHO65GGhTJvjV2sX8c4Ik/7cWPx+wTVL3v6SYck9V8H+FWzBYn/SnBf7UAsoP7V/GwuoA7sigAACCCCwXAQqDEufSO6M/ZC+ChGfeX5WHtppvpjVG3jnLRViLslpd/Do0xuye+c52fSWdjuevkP4vbN96Qkg7GD02Cl9koi8jOxSx/lzoMRrv5iVFS+8Kzm19NM/289Gqeejpi7Kiqcuyk/Ue+3nnddnZMULl+Udd9mfguUFCi/1wbqYuyhHL7wrm9TzVs/OytDb1TzLcUN2bz+X2qx51V4cWRfHptsw3WWHr3nPLCULneaw9Fc7zzu3ZGq/v+3cXlnKu8y6atutFxsYuTTe1mX3S2P7ndvCbMfoxCJ2ENMu7r0g45epj2SFb1k0hUy97t57LfCJ9dxYCVtrW/0PCzNyeNb07Jpbbzsg2PV06q2N9Abr4O5jL624PeXCkuh18f9Q4jv5YcY7tl7X8B9WjH80scvQz7dqu1ee+29D/dbLduoW3s/zcf/woI7p1WNGDp9Wk9IE3dx9rGMa6+huEf87jX8b8aWzBgEEEEAAgfoRqCgsWbfSbZ2Vw9btYp9I7vis3FVuNryYoHPnnUvyWVVWiZEil1HNFLfi+ct2uHEXhn8X3pNvhC8arOd6DLeqBS4OtYJilqf2F3PnQvOub8/K7qkP5aY7mYVWhSRvrfPw1IyMvJ9k62TbLPzi6E9y+qeX5CfvBY9n2WkXheoCzr84Vdv6F/76haJ6715kBre3yw+XGzxq8k8La7d/cW0fsUQY0Kvk9AO3XZWGpYdCo2+eoX5hHDqGfvjwe+uiWjtHcfWxlwfP37WTl7zZC631eh2sAwUDSlzZwQt7x1EvK0l7rG3MwcFuc+j8RMKtU9d+9fxgSClyfEMd3RCjWaqR62e8yS3C/cU5hlO2Hny9EW+tLNtXPVemz8wZ9PVqHWmbtybxm4X920h8GDZEAAEEEEBgWQtUFJbePnJO7n897zfImWQgPHLjb2DfcmcFnUgwmJe3j563ny+KrPNLEPmT/OT7CSYyeOdSdGa86+ov3hfkJwW9PPcvyrNyVGuKtYV10RL9C7/5ItC5WNL/Umx8r5UXU36odmU+2set+DbGMqWq1U8++aRMTEwk2NK0iarXjBy+Hlyn7PSLwGhY0ra3+lMwBMZtb50T7UJSK6Xit1W323A+rXqFJxII1Ch6cRu7j1W+dvHvXADrnlbR4e2c4wUDSKAS2gfDBbzpQtu0TCtFvbXaEbiQt5ZaXy/g1dlYTqgO1bYnZj+/ms6/WbffROpi1yM44qP2Du3nFhjYP2Ybd1vrd6id1jJ7P89H3z7UHrufaP3B2dbUf0zL9KKTvq/630bSA7AdAggggAACy1ygorCkLr5MYemuIzHfd3PjinzVmv0u5ra1T/My8vw5+ezhayWeX7JvOYv8pTcMqy4sQhdq6va/FbsMI1JWsEoellRIXBF5xmpe7vwpeLuefuue/157GMm6+NHCU7gNCT5btzQ+5UxiUTJkJihM20T9FVn9VPSy2qPfkhV8r86ZumjTLwTjwo913N9flvufn5EvadbWBb8xhIZvY6qo5t7GVbXb2jvm4jhwAe0dxnnj7BPqp7EXtqGLZXe0IfxvwTJyA4B2yNhyy24TbVviskJtk/Ctb+LMcKhvF/p3UXV7wl5aO+23oXZFzpUdZvT+au1nbRcNKYG2RcqKHFzFyej30sWWrfYP1if2HESObbcz0g5TlUosq/7fRolCWYUAAggggECdCVQUlqzbv3ZekpPqu3I+/bN3G170L7G2wp3fvyuP7S/zPUBq4oat5+SrJ+OmwDZcYJiQ1YWSfgEm89ZzAncZLiKtEFXyr//6AewLj0BI1FdX8j50UVjJrta2t96Tb2xV4TInz+wsFzKTl57GRdHNX1+Uz24/L60vXNIm2LAvjL/xa3/2wlJhSV0MPnTyI2vEMdAfrBGni3L602j4St7K6JYLardzgRq+ddD7HOiL9rHti93oRXfsRXD44t94Ye0EgLhAWbKfl9vXr6sVYAxt0lWtdkS2CV7wW9sH2uXUwft3Wq5OJf7YEChXr5n7PvTfkkjICK13d7PKDf4hwDvPzu2ikefL3H0Dvw3ll6xz0M7sqw4QMjT2k0BFyn5Y0L+NsqWzAQIIIIAAAvUjUFFYUl/2mjt1Ub60zb5w+Mx3Lsnul877M8tV2W414cJdT52XZ37rX1T7Rf1Rjn43wXe/WFNpaxdSn/7BmgThW2+HR7X+LCfVdy8l/TJX68LD8NyTX8Hk76wLI62OyfcUufMH2f2CP6JkPfP11Hn51m8TTpIRc6xULoquvyuP7XtXDr80I4d/+6481n/J+fJf+yLumXf8g8eHpQ9l5HnnFrw71+SZneflmbNO29SIkzMhh7pgXOhfzFVtFtru2IDj3o4Wfn7OuTA31j2uX4QvpGMuguNGYnz1mHdOncIjVdbWofrGX6j7ZZu3CV7w21trywxtqro9YS+/ava7sHOk/YYwo/Y01DFcdKJt0hhZioRRpyZa28znIVLj2AUL/bcRWzArEEAAAQQQqEOBCsNSqIWxgSS0XdmPt+X04fOyQn1v0Kw7ZZ6/U+7YjKzYGRyx8Nc674pXZdNT52Xk987n2Zy0br0oJ8PFWc8xnZNoiIqUKOJ9b9MVibnR0LBTiUXWBY09QlJiq+gqJygFDexnvlYEvrMqumupJWlcFKnvvvrqs+rcqGDkjES8/648tuuSvH3jijwWOgdxYUmN9v2VHmA/uuVMgPFnq2+405GrC8FA4Pg0fir5uLYvvN2hv+RHDqSFAWuds33JC11/FMctzgoNeuiKuWi3Lo5LjiC5JQZ/l9vPOr5b53JBxA2J7vbeocIW9gr3gv70yZnQiLDz7FMV7Sk5uuMEo0DfSRqWQrfDeU0LvDG3M7CJKSyVKjtk7pqZ/1vkBj33d/DIST8t/N9G0iOxHQIIIIAAAvUhUH1YKtyQkSE10pFSkFDBZH9MIPr0hgypqbZfcEcsTLj2iJH6Qtp38jesL3r9kj4Zhdql8L51+9pd+kW5qShr2xtyeN95WbFtVo4mmLEvrpjAcmv065x89UdX5e33w887fSRv//Z9eSc8k/j7V+QbO9U045fkdCEUDIrX5Jnt5yr/zqoURlZUu65NXdBmNNTCktVoe3KP1tDzaMawdOd9+db2GRn5fah9Mi83f3tJPqt9d5a6YPQveP8sJ186L0NuQA5gmz+kcjFoXcQGZ4ULH00PGnYoiYYhfx/7AjdwG6lzjMC00DFhyX22JbC/Kvzcpeisbt5BnWN6t795K/w3oYv1SHizApI/G545rNjH8c+ZU7wTVNTtbNGRLYOH2q1ke+K/R8n2N4xOJw5LboAL1/WWHD6szUznnLNAWwOz4cWE7Jj9HnJv8XPISocl91mwGXmomqCZ0n8T/M7DOwQQQAABBBpDoIKwpCY0+KO88857MvLSrHymyi9TrZrtTt4KZ+ri6kvfvySHp25I7s4nweLu/MEKSdY2L70nOXcChDsfyeljF5wvgNWWB/cW+eSOXPv9+3L4sN2+z3wnJ2+HA0p4n4o+35a3fzQr96vgZ3rGZOs52T3rFPjJLTn5gxn5q6fUl9ZekVyoqe5hrS/iVbcwvhO+3dDdIvp7dna28skcosWI3PiDvP2RG3DUhaA2sud8ibD73b/27irchC84P5LD3zE8s3YrLz9R7VdfRGxNVW+XoC4Y7/9/nWkMCypkGWY7NNVVRNJqtx0aytxO6VwAPzOuvgcn7nkXrQwtPFjbqxATCiulb/VyLsT1Y0VGeTQYt37hKbK1TbwQpgUqN3h4bQocQ6+DGw5jwpL7nE3shb1eluMXOFagovYHp01e3VyLuP0qCEvWAQzlR4Je+DzqI4OqEL0MzdWdvEOve7jscmHJK0Mv18BkWpTWvw1T2SxDAAEEEECgngUqCku54zPyVztn5BtH3pXT15NfnKcH9Inc/P1VK6zdvzM0M1/cQZxb6VTAOvo70zNR/o7qOaD7v72U7fPrIuq5nednZfdv/6gtNLxVMwruvSCHLy/s2SVDyRUusi9u7Qu8ouTeuCib3ggPk+nbaMUXQ31JzaL47fPy2A+uSi4cVi9cli+pL6RVF8Lbzstjr98oMZOidgzeItDoAlZQc0NqozeW9iGAAAIIIFAbgQrCUm0qxFEQQAABBCoX0G/9rHxv9kAAAQQQQAABkwBhyaTCMgQQQKCeBCK3FNZT5akrAggggAACy1eAsLR8zw01QwABBEoLaM9IhZ9xKr0jaxFAAAEEEEAgiQBhKYkS2yCAAAIIIIAAAggggEDTCRCWmu6U02AEEEAAAQQQQAABBBBIIkBYSqLENggggAACCCCAAAIIINB0AoSlpjvlNBgBBBBAAAEEEEAAAQSSCBCWkiixDQIIIIAAAggggAACCDSdAGGp6U45DUYAAQQQQAABBBBAAIEkAoSlJEpsgwACCCCAAAIIIIAAAk0nQFhqulNOgxFAAAEEEEAAAQQQQCCJAGEpiRLbIIAAAggggAACCCCAQNMJEJaa7pTTYAQQQAABBBBAAAEEEEgiQFhKosQ2CCCAAAIIIIAAAggg0HQChKWmO+U0GAEEEEAAAQQQQAABBJIIEJaSKLENAggggAACCCCAAAIINJ0AYanpTjkNRgABBBBAAAEEEEAAgSQChKUkSmyDAAIIIIAAAggggAACTSdAWGq6Ux7f4Nyr62T1E7vkyPiMzBVD2xUnZaBrnWzdfVAyb8xIfj60fjE/Xs9Ib2uLtN3XKWu+1iV9bxScoxUlN7ZLNg+eqm19FrOtlI0AAggggAACCCCwbATqIyy5F8vqgrm1RQaml42fV5H8WI9VN1W/tp6M5L019fKmIONP2r6qDR0bMjKnV312WB50/NtaO2XP2XCa0jdO+X3xlPR5x14lI7Oq/IJMDXZ65qufPiFztQxwKTeR4hBAAAEEEEAAAQSWn0BFYSk76F9MW6HAu4BNuLzaEEFYWvyec/OYbPbOZ7ccuRI8ZO7VLi+YdDw/KTWMSiKSlQGvbj2Sue7UrTApA51+31s9mK1xvYJGfEIAAQQQQAABBBBoLIGmCEvFs0OydsOwTLkX2YtwDmsxslS8OiPjr+2SzV/rki+u9ENCxwNdsuaJXXJoLBu9fS5hW+de6/bCUNuTx8S90c3afX5GRla5x1slI+cTFpraZjFhSZV/NSO9jsW9Gw7KbG1TXGotpCAEEEAAAQQQQACB5SdQWVg60GU9M6KeG6nqZ+eJ6m5PW8jI0u2sNvpwj6x97lhFt2sV/rVfdryWLftMzKKGpeuTMrLhHj/MeKMsboDRf98j6w9kpVDJLWnFSenzwle79J0JJo7imV3S4R6zezR4e15N+nSJsCQixekh2bq/wjbXpN4cBAEEEEAAAQQQQKCeBSoKS0vW0KrDUkEmnjOEjPvWyciZZE8Vze5fZYeU+7qlb3wu9javxQpLc+PbZbUbVNSzRA90y9adPf7zQ1/rl/HxURnY1i336tttzCQOhYG6d49KTg9a8zk50q2FMWeShaRhecdxg/PZISt8WSNiiYJ3p9a2dvliV3xYX31fi7StHJLsknVWDowAAggggAACCCDQKAINHpZEZL4gs2PbZY03cuJe+LfLmp3lRpkKcnKLu32LPLh/Jva8BwJHtc9mhUqfG+vxR3RWdsnAG3NSVEFGn2xBP9aVY7Kj0md4bp8KjCptPR64AU8Kx7f4ddDCWNJn1nrHDGFpuj/hKJlvn/R49nb9hKVQX+IjAggggAACCCCAQOUCSx+W0r5wHowZUyjMyJEnDaNMndtlPDSZgc+YlT1ayAoHCX87kbTDUnG63x9RWtkjRy5qt8bpZltOBJ8v0p7haWtdJQPT2n56ha33RZna7YycWUFImzxBrb89KQPes0rVBRfCUgSdBQgggAACCCCAAAJ1ItA8Yck6Iep7eYK3tbW19kjmaszZujwqa7zRlC45cjlmO0k5LBWzsscbIeqMBJ7ixC5/ZMYQDnOvlpisQWtCIJBFwlJRsnv9qbnbnNvz9BkRjUFIKz/2rR729JGx2B3ykunxw9pynDo+tuqsQAABBBBAAAEEEKhbgWRhSb+49cKDf/Fa2S1SLRK4yD57sPxkEV1fCNwKdm9n/DMraw7EjCxpp6h4cdSZQa1descC3yakbRUKQKuGxfp6n8AW/ofAyNKqXZI5PyeFUoM6/q6Rd4XxTV4YenB3dJpu/VhrXs1F9pcy04BbOwRuv3PPpT+yFAxS/gjV0oSl4O2QhKXoKWcJAggggAACCCCAQPoCSx+WkrSp6gkeShR+9YTs2FlqEoTgaEaHYQRHL10PMH54bJcvPrpF9qgpvW/rW5d6P6dNqBD9viO1Z/nAkpfxjW4AapHI7YPzc5LZ2O4FMr++TlgK3MrXInpgK3/sUm1z1unhO9HIUok2z6tRuG7ZeuCU5G4mODabIIAAAggggAACCCCQUCBZWEoy+tOpPw90j6wuMcuZcYa0UhUOhCV/9KPULgted2VU1nqjaO1SbjTDHJb8wNLW2i5f3NgvmTO50tN667f+hb/vyGpUMAjF1cubxU+1IRD01P56UGqXDu+5LGWbl5NbtPWr+mVKC3p6WCo9m93B+EkW9LC08gslRhZ3yYQz38Tc0XVeuAuMpp0f9mcGbO0ueavkgvsEBSCAAAIIIIAAAgg0lUCysJSERL8Abk15NrIlCEuz+7SJD9QtePp02gaPQFha1SVrH9AChxe6nPB0nxoJmTR+gWz+9R4vFKw/arpFUJ90Yl3s81aB+mw8Fvh+K71tqwczcsh7HsgJot7EDtHnpfSw5I9I6aHQfV+iDwT6iru96Xe/TDnugee0njvlTOFelKnnfecHB7OxU7sbThmLEEAAAQQQQAABBBAoKbA4YSnt77kJXFzXYGQp8MxPi6x9zRRagq6BcOLcWlbM52TitV3SGxecVn5BevedCtyil93rX/wbR43yx6TXC19+mAjWRkR0s/Ctbs6oWYf1XUz67Ya+bfFMv2x9PdruWocl7wk0fcTNfX5sCUJ0xJkFCCCAAAIIIIAAAg0rkFpY0kdE2sIX5wvlm9K/l6fEiMVCj2PtH5pOe+UWOZngWRhTWNKrUzh/TAY2BieqsEZmAqNW+kQGfnDRyxHnC12tfddlJBpnnK31sBQJr3OSGXS/Y8oclgLH1D7oYSkwUYe2Tdm3et0ifSUrA1oY9MLS/KS2vEfG88Hz1PF8dCKMsvVgAwQQQAABBBBAAAEESgikF5bG/NvH2kK3fZU4fqJV+vMqbV8bFcP8b4nKSbJRcBa4Fllrmm3OUFC5sOTuUrw6KYe2dDmz+7WHJl8oH1xyr3Z5t+mVnHRCDyQlb4ssf0y37up3KmFJD7+7J/Xi1RH8UBQIeXqQbJEdg9r3UKnp36+HillGHzOZjExPTwdqdPPmTTlw4ICo3/pLbae254UAAggggAACCCCw9AKphaWp3dozJ4EJBRbayKJMPKeV7T2vstByDfuHZoFr6xySbMLpv5OGJfeohdmM7Nh4MPQsVLngEgwMkVnu3MIr+t6ncsfUCk0pLAWswn1Fv80wNOo095r2/VHe6FOLrN4/E6zkMvu0YsUKuffeewO1eumll0QtV7/1l9pOLeeFAAIIIIAAAgggsPQC6VyVzc/IyCo/0PS+nk+vZfNZGfBmawt9R1N6RxEpTMqA90Wwqi3RyQ1KHS4QAEIX+aX2C64rE1yKp6TPCwmlR1P0Z5/atpwQZ1K54OGsT2WOGdpDH1mqdjY8fXQsMomF/hxSeIQyMEOh098qCLShptTsY9zIkgpKjCzV7DRwIAQQQAABBBBAoGKBVMKSmqmsw7uI70p1+ubiGb1s8/cOVdzq8A5XjsmOQFAq/WW14d3V53TCkj6KZpjpbrrfdy55O2JOjnzND68Plhx5qT4sVTsbnj4KGRkd02/RC486if4dVJUHWtN5YxkCCCCAAAIIIIAAAnECCw9LalRJDxrdo/GTDsTVIna5fiHfIm3G7x2K3TnRivwb/bJGG7lSAWB1FVNQpxOWRPTvR+qbCN4DmB30Z8oLfNdQuKWB7x4q9x1RunHp0Sp1GH1kqbqwpAe5VTJytihFd1r2+YJM7fanbI9MIHElI736uTIFRressAmfEUAAAQQQQAABBBCoUGBhYUld3A52ehMOtLWukoHp4AV+hfUJbD431uOPpLS2S9+Z9MpWEy2MbNC/SFeNVLTLmr2Tpb80NlBD/0NaYUlN+e2N0unh8PYp6fOCQokRtvk5yXjfm9QibYHZ9vz6+u+qD0uRMOMXGv9OfyapdZdM3A7ewukHsFUyMqsVE36ezBrJDPe3vIzv3C6Z2fibDrUSeYsAAggggAACCCCAQEmB6sPS7ZxkntaDUnUjMnG1y0/sktXerX0t0lHyuZu4UqLLC5dPyYhpCu/WTtkxlqv6S01TC0vFSS0UtUvvqzOSvz4jRzb6o0qxI2yR8BqebS/qIVLbsFQ4vsUP186zXfpteW5Y6tCeVypeHA2OKGn9oq17VHLeaJI7k167rHl5MedMNDmyDAEEEEAAAQQQQKDRBCoPS/NFmTszLOvv85+JURe49hecpsAzX5DZ1zbJvfoFcWe/ZG9XWXaxIHPnT0lm7xZZG6qzd2HetV0yFxc2apVaWBKR3KvmWd/s+nYGR1xcluvRkbJk56SWYakg40/6/ca9lTB/fIt/vtUX9Q6ekjknAM2Nbw+E5raVPZKZ1UfZtJCuTQ7hlu3y8BsBBBBAAAEEEEAAgUoFKgpL+Yl+Y+BY/bT7BaeVHj64vRr12fOoNoKiApO6OL4a3K6ST+p7kx7Ug5f+/r5u6Rubqeq2u3Ad0gxLom6l00eSvDqHJp6YL0r+8ik5tK3bDxvOth1dQwkDZg3D0uVRWeu1pcSthAq3MCOZne73UTkB675NMu70BfUlyN7tiur2yS39skPrO+HnvcLni88IIIAAAggggAACCJQTqCgsRS7iV3bJjvG5cscov76QlUOGW+M6urbLyQUEJfvAehiwL7o7HuiRkTdyqYQkt3GphiVV6HxepvZtktXWaFi7fLFrk4yc0aZkv5qR9V7w8Edr1OhTZeFV96lsgofKnllS3xGlBeESE4EUpoYik250dPXLhNb8SF8MWOyS0NwY7mniNwIIIIAAAggggAACiQUqC0uq2Ns5OfJkty5aliYAACAASURBVGw9MCl571mRxMeL3XDuuH67Vbus3Zti+bPDsrZzk/S9dkxmry7sdru4BqQeluIO5C0vSnbQnznOuhWya4sc0gOVt22pN1nZ400c0S57zpbaNjgbXmVhScR/9qhdSo/8qLa5z8O1y5rdp8x9TU0OoY0mubdVLvcvqS0tzFoEEEAAAQQQQACB5SJQeVhaxJqrSR3WbhiWqUUKNItY9aUp+uYJ2dHZJZufG5WJy9XOAFe7sGQhqVnt1umTMsTQzc/J+HO7ys9sp0bgDrjPo90ja5874T3vFFMyixFAAAEEEEAAAQQQSCSwrMJSohqzEQIIIIAAAggggAACCCBQAwHCUg2QOQQCCCCAAAIIIIAAAgjUnwBhqf7OGTVGAAEEEEAAAQQQQACBGggQlmqAzCEQQAABBBBAAAEEEECg/gQIS/V3zqgxAggggAACCCCAAAII1ECAsFQDZA6BAAIIIIAAAggggAAC9SdAWKq/c0aNEUAAAQQQQAABBBBAoAYChKUaIHMIBBBAAAEEEEAAAQQQqD8BwlL9nTNqjAACCCCAAAIIIIAAAjUQICzVAJlDIIAAAggggAACCCCAQP0JEJbq75xRYwQQQAABBBBAAAEEEKiBAGGpBsgcAgEEEEAAAQQQQAABBOpPgLBUf+eMGiOAAAIIIIAAAggggEANBAhLNUDmEAgggAACCCCAAAIIIFB/AoSl+jtn1BgBBBBAAAEEEEAAAQRqIEBYqgEyh0AAAQQQQAABBBBAAIH6EyAs1d85o8YIIIAAAggggAACCCBQAwHCUg2QOQQCCCCAAAIIIIAAAgjUnwBhqf7OGTVGAAEEEEAAAQQQQACBGggQlmqAzCEQQAABBBBAAAEEEECg/gQIS/V3zqgxAggggAACCCCAAAII1ECAsFQDZA6BAAIIIIAAAggggAAC9SdAWKq/c0aNEUAAAQQQQAABBBBAoAYChKUaIHMIBBBAAAEEEEAAAQQQqD8BwlL9nTNqjAACCCCAAAIIIIAAAjUQICzVAJlDIIAAAggggAACCCCAQP0JEJbq75xRYwQQQAABBBBAAAEEEKiBAGGpBsgcAgEEEEAAAQQQQAABBOpPgLBUf+eMGiOAAAIIIIAAAggggEANBAhLNUDmEAgggAACCCCAAAIIIFB/AoSl+jtn1BgBBBBAAAEEEEAAAQRqIEBYqgEyh0AAAQQQQAABBBBAAIH6EyAs1d85o8YIIIAAAggggAACCCBQAwHCUg2QOQQCCCCAAAIIIIAAAgjUnwBhqf7OGTVGAAEEEEAAAQQQQACBGggQlmqAzCEQQAABBBBAAAEEEECg/gQIS/V3zqgxAggggAACCCCAAAII1ECAsFQDZA6BAAIIIIAAAggggAAC9SdAWKq/c0aNEUAAAQQQQAABBBBAoAYChKUaIHMIBBBAAAEEEEAAAQQQqD8BwlL9nTNqjAACCCCAAAIIIIAAAjUQICzVAJlDIIAAAggggAACCCCAQP0JEJbq75xRYwQQQAABBBBAAAEEEKiBAGGpBsgcAgEEEEAAAQQQQAABBOpPgLBUf+eMGiOAAAIIIIAAAggggEANBAhLNUDmEAgggAACCCCAAAIIIFB/AoSl+jtn1BgBBBBAAAEEEEAAAQRqIEBYqgEyh0AAAQQQQAABBBBAAIH6EyAs1d85o8YIIIAAAggggAACCCBQAwHCUg2QOQQCCCCAAAIIIIAAAgjUnwBhqf7OGTVGAAEEEEAAAQQQQACBGggQlmqAzCEQQAABBBBAAAEEEECg/gQIS/V3zqgxAggggAACCCCAAAII1ECAsFQDZA6BAAIIIIAAAggggAAC9SdAWKq/c0aNEUAAAQQQQAABBBBAoAYChKUaIHMIBBBAAAEEEEAAAQQQqD8BwlL9nTNqjAACCCCAAAIIIIAAAjUQICzVAJlDIIAAAggggAACCCCAQP0JEJbq75xRYwQQQAABBBBAAAEEEKiBAGGpBsgcAgEEEEAAAQQQQAABBOpPgLBUf+eMGiOAAAIIIIAAAggggEANBAhLNUDmEAgggAACCCCAAAIIIFB/AoSl+jtn1BgBBBBAAAEEEEAAAQRqIEBYqgEyh0AAAQQQQAABBBBAAIH6EyAs1d85o8YIIIAAAggggAACCCBQAwHCUg2QOQQCCCCAAAIIIIAAAgjUnwBhqf7OGTVGAAEEEEAAAQQQQACBGggQlmqAzCEQQAABBBBAAAEEEECg/gQIS/V3zqgxAggggAACCCCAAAII1ECgorBUOL5dNr8+V3W15o72SN9EIbB/dvAeGTnrLDp7UNbsnZRiYIu4D0WZeL5TdvxrPm6DJV3+wQcfyI8yP5S+5571ftRntZwXAggggAACCCCAAAIILH+B5GFpfkZGurbIyZsiMu807HpGeltbpC3y0y/ZcNuLk9K3blRy80Up3PTjUHawRQamnY2n+6VtMCu5VzfJodlwAcHPc2M9cu/GjMy5dQmuTvzpo3dm5OcPPyrqdxqv27dvy8jwi7Lpicfl8MuHZGbmHe9Hfd6wfp1877vfEbUdLwQQQAABBBBAAAEEEFi+AuXD0vycTL2Rk9xYj/QetUeVZvetkrWv5kQkKwM9GQmO7WRloFUPS0XJHT8mRwbXyZ6zRZGbJ2Rr15CMv9oTClk9khmzw5LcPiV9G8Pl+oiFqX5ZHQlodmjr2HgsVB9/P9O765NT8vJ//E+ifi/0pQLQ5icel+F9L5Ysyg1NBKaSTKxEAAEEEEAAAQQQQGBJBRKEpYJMDXZK26NqVEhE1GhSt/M+UVgSKV4cld5Vu2TqdlGmdnfLiDVqlJeJl0/Yweb6KTn0xpzI7LA8OGiPSeUv56RgGDWaG98uq1f2yJGL/uiUJXg7KwOdnTIwHVoew/uTv10tb3z9H+StZ5+3wpL6rT7/5L/995g9yi/e9dwz1mhS+S3F2k7doscLAQQQQAABBBBAAAEElqdA+bCk6j2vAlOX9I5lZXzLOjly2W1MkpEle9vidL+s6eqS9fv9293mxobkZF5k7rXtdpkqiDlhyT2C97swI5mdXfLFDQfl5GtbZP3+rB+mbufkyMYuGZgKPg/l7Wt4c+XnJ+X0//0tOfKfO6ywpH6rz2p5NS91u90/bttq3HVt98PG5Spcqf14IYAAAggggAACCCCAwPITSBaWVL3n5yTT02Ldfpc/Pyk565EbdctdwmeWbk/KwMZRyV2dlPHpYzH7hcpyg1NxRkYe7Za+sRk7IFnhrVNWD05K4WZWRh7tkr6J4M2ASaiLfyzIa//nZyXz+f9i/Vafq319d/A7cupXv6pod7W92o8XAggggAACCCCAAAIILD+B5GHp+jHZ/KQzocLssDNClGxkqXhzzhqROnQ2L4Xrp6SvZ1SMc+oVT0nflhNiRRbDLXhBvqJMPf8FaVvZLSPnk916F9xf5Jcbeq2g9Ke5q9ZvdRtetS81cUPcM0hxI0tqe7UfLwQQQAABBBBAAAEEEFh+AuXDUv6E9H2tS9Y80C73dnbJmnU90vtol6y+b5OM30wSlvIyPrhL9uwdkq3dLbL55UkZ371JjkyEZtKzJopwy1Mz7+2S0CzjAT317NLajQclW/1gkMwcOOhN7KAmeFCfq33FBSJVXrXrqq0L+yGAAAIIIIAAAggggMDCBcqHJSlI/kpBCuq2O+2ZouLsCTl5ZTLBbHh+Jb1pwt2JItzb7LyJIvKS6emX7OVR6d3nP9vkl6DqMCkjG+4JzaQXun2vVZuOPLDz4n2oZmRJfecSI0uLd04oGQEEEEAAAQQQQACBhQgkCEsiUsjKkdeyUnDCUmFiyPkepITPLKnRqQNZmVDfqXQmK3v2Ze3gpT/v5ExBnt27TtavWydHrgSbVbyalSPPdcvqDcMyNT0qvZEpy93tVeCqfVgq9cxS3MgSzyy554zfCCCAAAIIIIAAAggsP4FkYenyqKzd6wQcNRp085hsfX5Sit6IkN6w8Pcsich0v/SO5cUeWcrL+NPDMquNUunf15Qf32RNH249heQ8t1S8eFDWd++SI9POJA5q32UWlv7trbdEzW5nesWFJTV7XqWTQpjKZxkCCCCAAAIIIIAAAgikL5AoLM29tk76zhS12/BycqR7SLIJw9Lc0R4ZmBYnLIlk926S8bPRZ5Zy54dl7QP3yL1PHlM3/0lmd8xEEMswLKlTU+n3LMWFq/RPMyUigAACCCCAAAIIIIBApQLlw9L8jIx07pIpNdRzNSPrveeM1KHcCRn0w4ZHluYks8He33tmqViU4lX9O5VycqjrHrm3a7ucvJqXk1vWyaGzJ/yZ8fTi1XsVlvRb+AzvVTir9UvNbqdGi145/HLJQx9++ZD1rJJ6ZokXAggggAACCCCAAAIILE+B8mFJPbJ005lybrpf2qywZD8X1GYIKYFlbrBybqfzwpKymC/ak0aISP74FuvLZr2Z7a4ek833tcvW4zFT3ZUZWRrfWPtnltzTqwKTen7p63+/zgpNszMz4v6oELX5icdleN+LsdOMu+XwGwEEEEAAAQQQQAABBJZWIFFYWtoq1ufR1ahR5odHrVvz1O12KkD97KfjwmhSfZ5Pao0AAggggAACCCDQfAKEpeY757QYAQQQQAABBBBAAAEEEggQlhIgsQkCCCCAAAIIIIAAAgg0nwBhqfnOOS1GAAEEEEAAAQQQQACBBAKEpQRIbIIAAggggAACCCCAAALNJ0BYar5zTosRQAABBBBAAAEEEEAggQBhKQESmyCAAAIIIIAAAggggEDzCRCWmu+c02IEEEAAAQQQQAABBBBIIFA2LH1w8Za88shx+ae/PswPBvQB+gB9gD5AH6AP0AfoA/QB+kDd9gGVa1S+SfoqG5ZUgdOjF5KWx3YIIIAAAggggAACCCCAwLIUULlG5Zukr7JhSY0o8UIAAQQQQAABBBBAAAEEGkGgknxDWGqEM04bEEAAAQQQQAABBBBAIJEAYSkRExshgAACCCCAAAIIIIBAswkQlprtjNNeBBBAAAEEEEAAAQQQSCRAWErExEYIIIAAAggggAACCCDQbAKEpWY747QXAQQQQAABBBBAAAEEEgkQlhIxsRECCCCAAAIIIIAAAgg0mwBhqdnOOO1FAAEEEEAAAQQQQAABS+DGx5dLShCWSvKwEgEEEEAAAQQQQAABBBpR4PJH0/I/jvylnL/+i9jmLXFYyspAa4sMTMfWr4oVi1FmFdVgFwQQQAABBBBAAAEEEFiWAm5Q+uWll0rWj7BUkoeVCCCAAAIIIIAAAggg0EgCSYOSavPShaXpfmlrbQn86CNM2UF9XY9kruunKC+ZHsP6MmXmx3oCx2sbzGqF2iNSfp3Mx+wdywaObdc5uK/eDu0AvEUAAQQQQAABBBBAAIElFKgkKKlqLl1YspDMt8xZQUkPMlYI8sNLeH1+rF8LUyXKbO0XPx5lZcA9xvWM9La2SO9Y3j91TvDyg48b0Px6+OErvEw/jl8k7xBAAAEEEEAAAQQQQGBxBKauZEoWXGlQUoUtv7BkBZdw2LCDih1m9PcmD0NYssr0A014r3D4ctcHl5uOax8rELLEcHy3QH4jgAACCCCAAAIIIIDAogg8OvoX8i9vPm4s2w1Ke3/9iHF93MLlF5YMt9K5t8Z5ocTbJhyqVDMNYUVt35MRbdxI87BDkD+CpK0K7BcfloL7Go6vFclbBBBAAAEEEEAAAQQQSF9ABSIVmPaeXhsovNqgpApZnmEpNtgE2i3+bXB6aDKElUDoCZYhQlgKi/AZAQQQQAABBBBAAIF6FAgHpoUEJdX+5ReWytwyFz1p4XAU/iwiZcoM3m7nHyG4nJElX4Z3CCCAAAIIIIAAAggsTwE3MO3+5d9Z36NU6a13equWOCyZAoi9LHzbXHbQHT3KS2ZQv6UuHI5MZYpYwafiCR7055xM5YaPrWhNy3Ry3iOAAAIIIIAAAggggMBiCriBaSFBSdVvicOSiHjPH+lfTusEJm1qce95Jee2Ofc5JvU7+MxQXJluYPKnHA/sZ40++evaAsFKURGWFrNDUzYCCCCAAAIIIIAAAmkK3Pj48oKLW/qwtOAmUAACCCCAAAIIIIAAAgggkL4AYSl9U0pEAAEEEEAAAQQQQACBBhAgLDXASaQJCCCAAAIIIIAAAgggkL4AYSl9U0pEAAEEEEAAAQQQQACBBhAgLDXASaQJCCCAAAIIIIAAAgggkL4AYSl9U0pEAAEEEEAAAQQQQACBBhAgLDXASaQJCCCAAAIIIIAAAgggkL5AqmHplUeOy/TohfRrSYkIIIAAAggggAACCCCAQA0FVK5R+Sbpa0W5DT+4eMsqUCUwfjCgD9AH6AP0AfoAfYA+QB+gD9AH6rUPqKCk8k3SV9mwlLQgtkMAAQQQQAABBBBAAAEEGkmAsNRIZ5O2IIAAAggggAACCCCAQGoChKXUKCkIAQQQQAABBBBAAAEEGkmAsNRIZ5O2IIAAAggggAACCCCAQGoChKXUKCkIAQQQQAABBBBAAAEEGkmAsNRIZ5O2IIAAAggggAACCCCAQGoChKXUKCkIAQQQQAABBBBAAAEEGkmAsNRIZ5O2IIAAAggggAACCCCAQGoChKXUKCkIAQQQQAABBBBAAAEEGkmAsNRIZ5O2IIAAAggggAACCCCAQGoChKXUKCkIAQQQQAABBBBAAAEEGkmAsNRIZ5O2IIAAAggggAACCCCAQGoChKXUKCkIAQQQQAABBBBAAAEEGkmAsNRIZ5O2IIAAAggggAACCCCAQGoChKXUKCkIAQQQQAABBBBAAAEEGkmAsNRIZ5O2IIAAAggggAACCCCAQGoChKXUKCkIAQQQQAABBBBAAAEEGkmAsNRIZ5O2IIAAAggggAACCCCAQGoChKXUKCkIAQQQQAABBBBAAAEEGkmAsNRIZ5O2IIAAAggggAACCCCAQGoChKXUKCkIAQQQQAABBBBAAAEEGkmAsNRIZ5O2IIAAAggggAACCCCAQGoChKXUKCkIAQQQQAABBBBAAAEEGkmgIcJScXpI1u6faaTzQlsQQAABBBBAAAEEEEBgiQUqCkuz+1fJ1uOF6qp8PSO96zIy5+ydf71H1h91Pk33S1trS/BnMBs5TnawRdr05VePydadJ6Qgc3Jk3S6ZKkZ2CS3Iyp4H1smRy6HFJT7OHd0k61/NSdmiS5QRWXV5VNY/elBmUy00cpSqFnzwwQfyo8wPpe+5Z70f9Vkt54UAAggggAACCCCAQDMJVBSW8mM9MjDt8KjwEw442ufesXzQUW3fkxFv6XS/eNvo79VeKjzpocgpKRKWpChTz6+TI1dE5o72yJ5yaelqRta37pKJhCFl7vVNcu/KHslc9ZsyN7ZFeg9kpTDvL6vo3e2sDHR2ysB0wkqUKPytZ/pE/aTxun37towMvyibnnhcDr98SGZm3vF+1OcN69fJ9777HVHb8UIAAQQQQAABBBBAoBkEEoSlvGR6QqM+re2yedyLPVKc2BUINypUeUFIRNTnyMiRG6xUgKo6LKlgNSRrX80lOleF41ukTQ9sJfbKT+yS1Su7ZeR8MNQUzh6U9fe1SEdXv0z4BH5J149J33PHZC64m71+fk4yG9tjLDplz1nTTn7R4XfHH14r6mehLxWANj/xuAzve7FkUW5oIjCVZGIlAggggAACCCCAQIMIJAhLoZbOz8hI1xY5edNfrsKQd0udE470sGRtuSgjS34dwu/yr2+SzYHb54oy8VyLrEkQrObG7BGlIxdjwkshKyOPtkvbym45FL6Xbqpf2lYNy2y4Qs4+q58/JfnQqNTcWI/cuzEjc6Hl4SLUZxWOfvLf/rvM/Msh67d6f/Z/7bXe//zhR027lF2267lnrNGkshuKWNupW/R4IYAAAggggAACCCDQ6AIVhyV1u1vv68EhFdNIkjEsuaNJzm9vm2qfWSp1dgqTsqfrHlmzd9K+ZW4+KwMrV8lIJMVohcznZWJ3l3So+hluA9S2FLG27Q+ERrVePdfV9typwDNO+TPDsv6BLtkxdkz2bNwu41f8ktQI1pqEQUntdeXnJ61b737yt6vl5f/4n6yfzOf/i7VMrav0pW63+8dtW427re1+2LhchSu1Hy8EEEAAAQQQQAABBBpZoLKwdDUjm59UIyB5GR8clZwz8KICQp/2IFA4PFmAaY0srfyC9D43KhOXE0w0cXvGGgFSozlzE7ukwzTi457dK8dkR1e7rH46IxMv95QPS+5+gd8zMrKqJTAJRv74Flm9cVimrjsbXslI7309krlSlLnx7bJm46jkqngM6JcbeuXIf+6wft74+j8EalHJh+8OfkdO/epXlexiba/244UAAggggAACCCCAQCMLJA9L1sQELdKxMSNTY5tk85g7r526vS04YmOFpdDokxgmhNBHlrz3SrvUBA9Pj8rEgS2yVj039ECPDIzPlJ5swQlM6pmpta+5ddZO6Xxepvatk3tXdsueM/aImap/2ZElrQjv7flheXBlgln5rozK+tYWWf30iUS33nnlO2+y39tjjSj97uiPrJEmNcKkllXzUhM3xD2DFDeypLZX+/FCAAEEEEAAAQQQQKCRBZKFpcKkDHT1yMDudTJwNCO9XxuWWe/5GjWaskVOagM9aqTJmzXP1SsxshQZiSoVltzb4+aLMndmWHofaJe2+9bJyLRWAfeY7u+zQ/JFFU4Gs4Hb49TqwvHtsnZnRma13asLSwUZf7JFHtxX5vueClk5tLFbdowbgptb3zK/r09OBcKRCkpqWTWvuECkyqp2XTX1YB8EEEAAAQQQQAABBJabQNmwVLySkc0P9Iia7ECFCBWCrC+BfeKY/Z1Jl0dlTWiGOTXFd6VhKTJbnhuKNLHo1OEiMl+Q7IEtMhI7Fbc9m9/qp7dL78pVMlBuenF39j7D8bWqRN6qGQE7VgYnvghsNF+Q2bHtsmZleGbB0OeQZaCMRfhQzciS+s4lRpYW4WRQJAIIIIAAAggggMCyEigblqQ4J3POfA5uWLJaYI0sFSU7uEo2j2vDMhK+Lc809bgWEHoyclKNROkDI0lGlhIyqpnmOjr7JXtbjSJtkY7Q9yaZiql4ZOlqRnpXtkcmvrCdCpJ7Y1h6O7tlx9iMnNxtCJJuJVS7axyWSj2zFDeypJ5x4pkl96TxGwEEEEAAAQQQQKBRBcqHJa3lgbCkll8elbWd+i15aqEKRz2ScSc00PYX99a9+bxkz7sz6qntu+TIZW3DlMJScbpfVrfq31+kgly7dGw85n85rnZY921FYUmNvN3XLmv2Rm/xEynIxM5O6d13SnJOnjSOurkHXoKw9G9vvSVqdjvTKy4sqdnzKp0UwlQ+yxBAAAEEEEAAAQQQWM4C1Ycla8KHThmI3P6WlYHWfsmGW21t3yWHVCgqZmVPV49krorIzWOyOTxLXQphqXh+WNau7JQdx0PPBt08IQO7o991pFc3UVjybqu7Rza/los8C6WXp79fbmFJ1a3S71mKC1d6O3mPAAIIIIAAAggggEC9C1QXlvKnZKDrHun1ZsQTKTrTiBfO9MuDW06IfmOe3M7JkY1dMjDlL1WjPuv3TcrU4KroLHXqi10NzwwZn1kynAE1JbcaUeqbcEevDBuVWFQyLN2ek+xYv6xXs/F1bZeMPjNEiTLdVVYbQt83FXheq8a34al6qdnt1GjRK4dfdqtp/H345UPWs0rqmSVeCCCAAAIIIIAAAgg0ukBFYSm7t92auCE/MSwjgSCiPZd03zo5NOskJ0svLye3dcseLSh5qOqLYzce9GfWK56SPhUk7uuWgQk/WLnbJwpL14/J5u7gF7+6+yf9XSoszb22TlY/0S+Z6eqCWMmRpbND0rEEYUm5qMCknkP6+t+vs0LT7MyMuD8qRG1+4nEZ3vdi7DTjSW3ZDgEEEEAAAQQQQACBehGoKCzVS6OoZ/UCatQo88Oj1q156nY7FaB+9tNxYTSpelP2RAABBBBAAAEEEKhPAcJSfZ43ao0AAggggAACCCCAAAKLLEBYWmRgikcAAQQQQAABBBBAAIH6FCAs1ed5o9YIIIAAAggggAACCCCwyAKEpUUGpngEEEAAAQQQQAABBBCoTwHCUn2eN2qNAAIIIIAAAggggAACiyxAWFpkYIpHAAEEEEAAAQQQQACB+hQgLNXneaPWCCCAAAIIIIAAAgggsMgCZcPSBxdvySuPHJd/+uvD/GBAH6AP0AfoA/QB+gB9gD5AH6AP1G0fULlG5Zukr7JhSRU4PXohaXlshwACCCCAAAIIIIAAAggsSwGVa1S+SfoqG5bUiBIvBBBAAAEEEEAAAQQQQKARBCrJN4SlRjjjtAEBBBBAAAEEEEAAAQQSCRCWEjGxEQIIIIAAAggggAACCDSbAGGp2c447UUAAQQQQAABBBBAAIFEAoSlRExshAACCCCAAAIIIIAAAs0mQFhqtjNOexFAAAEEEEAAAQQQQCCRAGEpERMbIYAAAggggAACCCCAQLMJEJYW8YxnB1ukbTC7iEegaAQQQAABBBBAAAEEEKhW4MbHl0vuSlgqybOwlcawNN0vba0t3s/AdPQY+bEeb31ba49krlezTV4yPf5x2noyko8WYy+5npHe1n4h1sUBsRwBBBBAAAEEEECg0QQufzQt/+PIX8r567+IbdoSh6WsDLS2iCkwxNa47IrFKLPsQY0bRMKSFZS08BP+LCJ2UPKDS/izOlB4WfiziBOUvFGt8GenuoHg5h/T2BgWIoAAAggggAACCCDQIAJuUPrlpZdKtoiwVJJnYSuDYckOLL1jwfGd4DamoBfeL8E2VggKhR9r9EgLaqKVY9p+YU1nbwQQQAABBBBAAAEElqVA0qCkKr90YSkwqmHfLqaPMFkhwrtdTb/IV9V2RkrC60uVaYWFmNvSDPtZt8ppt64F62MaDbPDh3eL3WBWAkEoElbsvmON8w4PpQAAIABJREFUCrnHiQktgXISbBPY3uuiWjjyljlvYsoMb8ZnBBBAAAEEEEAAAQTqWaCSoKTauXRhyVI2X8BHLvati3k/MIXX58f6ted64srUR1pibktzz3w4PFzPyIA+IhSqjzijNPqokX1rnDbBQ7hMw7ECwcld79525wSq8tuER6LcguKWi0hc3dxd+Y0AAggggAACCCCAwDIXmLqSKVnDSoOSKmz5hSXjZAP6hb7+3uRhDkvhLeNChzgjUPooV3hfNxy528SVFQh1cYFEWx5Xjr5cf6/Xy18e5xO3nLCkO/IeAQQQQAABBBBAoD4FHh39C/mXNx83Vt4NSnt//YhxfdzC5ReWrPCg3S7n3WrXIt7IjbeNPlrkNjE+LFnhRSsvOkOcHSiM032Hb+PTJqZQ5Xp1c6shErwNTwtF2iaBUR0/8AS2sCd0YGQpiMInBBBAAAEEEEAAAQQ0ARWIVGDae3qttlSk2qCkClmeYcl9hifQzOgHK1xY4UcPTYaw5AYdb3Y4Z0a50HHiwoodsvzbAMMjS4nCklUHvQy7PYFjxgQq6/hu3RNsE9jeYzO4uOtiynRX8xsBBBBAAAEEEEAAgXoQCAemhQQl1d7lF5ZiQkX8yQmHgPDnhMEo9rjR8kxhqfwolakce/TJG5Uy1sEe7XJv+bNvEwyHruA2gQDmwlll66HSXcFteJoEbxFAAAEEEEAAAQTqXMANTLt/+XfW9yhVeuud3vwlDkum52icW+FCoz7ZQfdCPy+ZQf0LVsMhxFBmeOTECg4t4gccuwwvtOhCzsx7+jp7pEmbEc8pT9/GG/VyR4TciRr0L38N18u9dU9ruyn4WMcvuU24PQYTvY2GeuireY8AAggggAACCCCAQD0JuIFpIUFJtXeJw5I7qhGeOtwJTNrzRX4Qia7zRl3cM2hd/AfLdAOOOyV4dqzHC0uBddoxvTDlhitn3cB0OKCJuBNDuFOHq/pa5WphSVXPC1GR2wfdyjvPOrn10EKRv0WSbew66vXR9w+8JywFOPiAAAIIIIAAAgggUP8CNz6+vOBGLH1YWnATKAABBBBAAAEEEEAAAQQQSF+AsJS+KSUigAACCCCAAAIIIIBAAwgQlhrgJNIEBBBAAAEEEEAAAQQQSF+AsJS+KSUigAACCCCAAAIIIIBAAwgQlhrgJNIEBBBAAAEEEEAAAQQQSF+AsJS+KSUigAACCCCAAAIIIIBAAwgQlhrgJNIEBBBAAAEEEEAAAQQQSF8g1bD0yiPHZXr0Qvq1pEQEEEAAAQQQQAABBBBAoIYCKteofJP0taLchh9cvGUVqBIYPxjQB+gD9AH6AH2APkAfoA/QB+gD9doHVFBS+Sbpq2xYSloQ2yGAAAIIIIAAAggggAACjSRAWGqks0lbEEAAAQQQQAABBBBAIDUBwlJqlBSEAAIIIIAAAggggAACjSRAWGqks0lbEEAAAQQQQAABBBBAIDUBwlJqlBSEAAIIIIAAAggggAACjSRAWGqks0lbEEAAAQQQQAABBBBAIDUBwlJqlBSEAAIIIIAAAggggAACjSRAWGqks0lbEEAAAQQQQAABBBBAIDUBwlJqlBSEAAIIIIAAAgg0s0BeMj0t0juWb2aEFNtue7YNZlMsc5GLmu6XttYWaWvtkcz1RT5WjYonLNUImsMggAACCCCAAAKNLWAOS/mxHucCOu4i2gkF1kV2i7T1ZCQat7Iy4K5Xv00BwrtQV8dpkYHpeO3sYD2EujoLS9cz0ttAIcntPYQlV4LfCCCAAAIIIIDAYgtYF/T9kuZYgRVGjAFjsRsTLj8aluyg5Lc3/FkkHAjCn9Ux7KDkj1iFP4uI5aqNZoQ/W1V1ynZCl19euB18rkrA1LdNy6oqfOl2IiwtnT1HRgABBBBAAIFmE1iEi8flG5bsUBMc4QkFKpNHaITC2L7AfqEynT6lRo/0ESi/HPP2zdYVU29v4Jw4pZuWpX7gxS2QsLS4vpSOAAIIIIAAAghYAtbFu34rWas/4uKOntjPexhuRbMChH17mbWNNZIUHCnxl9vg4eP5ocWwn1Mvf5vQbW+BujonNFSn3rFs8JmlmAtlPcTo7/1uooesmGCjByr9vV+I+OFIW2i9jSkzvJn6bLUh7K5t6B076BUctXKPZ/u459i2Du7n+6tjuPsFb0q02qX3I/eWRNfbrbM+2uguc/fT1znNie8vaoNgPcPPJIX3VbdS/kqFVfd41m+9v2uG6m3J+tkOellBJxG3H+n1sM9BcN/geQnVIeYjYSkGhsUIIIAAAggggEDqAu4FbaBgPRzYK6yLPu+CNrw+L5lB/7keYyi4npEBfaIF67jabWqB40cvyvNj/YEH9IP1EREnKOkXre6FqntBaqyXigDqGSYt7Lnb+1XS6xNuu7uVttxo6l6Amy7Q9fLd8qK/7VASNLPbqJXpOLTpYTJi7V6w+2XZZaswEV6mlW0IS5HjqxATCEvB0TTVqiTt8M+J4zDd7z/z5bQxcJ6sNoaeCzOdB9OyEHW0fnr/ts+zPkLo9j29Pm7f8/qjUz8VsILLfO9QNWI/EpZiaViBAAIIIIAAAgikLGC4eLQuFt0LXvdw3oiFG0ziL/IiF7puGYHfWrgILHf+Ku8Fs9BK92Oo3tbFabjOoYv7uHr5y+NCi748rt7a8lDd3CrboxV6+HDX6OW7y8K/tfIDq0LLDaExOiJkOp5djn7B747eeBf3IU87JMT3g8hzW1a9Q/X12hJcbj6f9sZx6yLLTefBtMyrg3oTrEdglRv0DH3T70NxdbTNAyEr7Bk+WMxnwlIMDIsRQAABBBBAAIHUBQwXj9ZFZ+B2Jff2Jf/C2NsmElD0kZpQbb1RD7c87a/s7qZWffzjuIvVb+uCNFAvN3jYF6L+Rb27VzAUhC9ova3qYWTJsnPb69bc/q3OhRdy9FDrbRZ0iIYntaEpJISXhcpR58oQHLzDGvqWHbCStiM40mWXG3eunZE7vT6m45uWeRV2/xBgrp+lpFuX2C8S3IzBKOSpl1fiPWGpBA6rEEAAAQQQQACBVAUMF4+Bi++SB7Mv9qxnN7TQZAoldrjSQ1D4QlwdyLTMXx64MA/UO+4COnQxGtjHb5h+Yau/17awpgm3w1ioTHcjPaTo7931btjTL+a9dTFleutLX8QHzpfx2OHyw5/VgUz24WWh/ZSnsT1OxU3eVv3MYSTQDrftVhl6aLLrEA3GhCWXjN8IIIAAAggggAACaQkYLmhNYafk4UJlRPcPX3Sr0qLLzEEl5lmfwDHtC+jgLU7+MZKMurgX39G6R4OKsZ6qPl5wiLbNqk3cqIRx1CEsbi4z4ljLsGQ8llbvwDlylydsh7u59TsY0oz+qkeFZhs03vZorJN+sLj62dsY+4chCEfqYjzHwXbptSj1npGlUjqsQwABBBBAAAEE0hQwXfBay7Rbu6zjaQ/uGydr0EYLIhek0YtC62JSe9jdugjVJyXQ2xipo31BG53EIHhbn3sMLyy5F9ReqDHdMmiX7e8Trbv7QL8bsCKBxb141tsTMdEbaDiGoQzbSB+dMzzfFbFSxwmXH/6stjGFhPCy6H62sXbuVTnuKGNMm5O0Izuolxk6rql/WscK2hjDksEn3Pei9Us2wYPfHwzBLXIOTOdFLSv/IiyVN2ILBBBAAAEEEEAgNQE3VATCh3NB6k+PrF2IRtbpF7aqWvbFrbWvG0xC+wxMaxfioXX+Mf3wY1/Aus869UvWdCFuLXO3UfuGLrIdMb+9hinRrW3surn18IOTRh6qs36h7G4VqbO7IvLbXM/wRbzaLVhmdKY586QL4fLDn1XJ2vnw6hdeZtrPCQbas2SehekcOWWXa0fgHLWGg7s72uef60Dfdesfc3y/bLvfJnEO9oFg/9BnEHQPbR3DDY3WQpOdaZlbQvxvwlK8DWsQQAABBBBAAAEEEECgiQUIS0188mk6AggggAACCCCAAAIIxAsQluJtWIMAAggggAACCCCAAAJNLEBYauKTT9MRQAABBBBAAAEEEEAgXoCwFG/DGgQQQAABBBBAAAEEEGhiAcJSE598mo4AAggggAACCCCAAALxAoSleBvWIIAAAggggAACCCCAQBMLEJaa+OTTdAQQQAABBBBAAAEEEIgXICzF27AGAQQQQAABBBBAAAEEmliAsNTEJ5+mI4AAAggggAACCCCAQLwAYSnehjUIIIAAAggggAACCCDQxAKEpSY++TQdAQQQQAABBBBAAAEE4gUIS/E2rEEAAQQQQAABBBBAAIEmFiAsNfHJp+kIIIAAAggggAACCCAQL0BYirdhDQIIIIAAAggggAACCDSxAGGpiU8+TUcAAQQQQAABBBBAAIF4AcJSvA1rEEAAAQQQQAABBBBAoIkFCEtNfPJpOgIIIIAAAggggAACCMQLEJbibViDAAIIIIAAAggggAACTSxAWGrik0/TEUAAAQQQQAABBBBAIF6AsBRvwxoEEEAAAQQQQAABBBBoYgHCUhOffJqOAAIIIIAAAggggAAC8QKEpXgb1iCAAAIIIIAAAggggEATCxCWmvjk03QEEEAAAQQQQAABBBCIFyAsxduwBgEEEEAAAQQQQAABBJpYoKnDUu7VHtkzXWzi00/TEUAAAQQQQAABBBBAIE4gWVia7pe21paKfgam4w4ZWq7K7slIPrQ4O9gibYPZ0NJ0PhYmdsnmsbzIlVFZ++QxKaRTbOqlfPDBB/KjzA+l77lnvR/1WS3nhQACCCCAAAIIIIAAAosrkDwsVRBcVNBZ+rBUlOzebukdPCazN0OIxUnp6xyW2fmCjD+9SyYqSUu3s7Jn43YZvxIqM8WPt2/flpHhF2XTE4/L4ZcPyczMO96P+rxh/Tr53ne/I2o7XggggAACCCCAAAIIILA4ApWFpesZ6S05wtQjmesi5cKSWt+rRnbUaxFHlopXs3JkZ5d0tN4j6/dNSn7eR5zd3yNHLvufE7+bn5Nxp8zNr+XEdBNfdn+PjJytJIH5R1cBaPMTj8vwvhf9hYZ3bmgiMBlwWIQAAggggAACCCCAQAoClYWl0AHjQlHccmt3K3D1i3eD3SKGJbe6hdmM7Nh4UGa1sOSuq/b33Ph2Wd3aIqufPhG6hXBOMutaZOvx6sLSrueesUaTktRLBSZ1ix4vBBBAAAEEEEAAAQQQSF+g5mEpP9YTfBapBmHJzFaUid3r5NCsOzaUl0xPzHNZhmeqVJnFi6Oy48BMsPjCCdna2lXVqJW63e4ft20Nlud8Wtv9sHG5CldqP14IIIAAAggggAACCCCQrkDFYckKOzG34rm31sWPLGVloNW+Vc9rxmKEpZsnZMejW+TQmTkpxo0mzWdlYOUqGZn1amJ+E1M/88YiheNbpG3VsJQr1rT/dwe/I6d+9SvTqthlanu1Hy8EEEAAAQQQQAABBBBIV6DisKQf3gtFN7Mycd4doSnxzJIpeJiWiV1GYDa8ss9Lac9BzRck98awrL+vRdruWycjU+G59kSKZ3ZJhwo1cWHKbWhM/dzVwd8FGX+yRda+NhdcnPCTmrgh7hmkuJEltb3ajxcCCCCAAAIIIIAAAgikK5BOWCpmZU/XLplwJmfzQlSgrvZtbpFZ8mLCiCpjzau5QAkVf5gvyOzYdtn6WricCkJNTP2MdTk/LA+2bpLx8Ox7xo2jC+MCkdqy2nXRo7AEAQQQQAABBBBAAAEEkgikE5bU8ztnD8qRs/bokjEshSd2cGtnDCN5Gd/YIr2vR0eE3N0W8rs41S8PrtwlU/5gmFWcqrfx+6RinlkK1GE+J0e6W2T1/tAzTIGNSn+oZmRJfecSI0ulXVmLAAIIIIAAAggggEA1AhWFpVLPK7khQwUcU1hSy9xnmspWtHhK+loTPE9UtiDDBoVJGVjVnny2OmOYC5dblOxgp7R1Dkk2FMDCW5b6XOqZpbiRJZ5ZKiXKOgQQQAABBBBAAAEEqheoKCwlPUw0LBkmdihRmBXKOg9K+Oa5ErskW5U/JX2dLbJ6MGv8fiRjIeXC0nxBpvZ2Scd9m2T8qrGExAv/7a23RM1uZ3rFhSU1e16lk0KYymcZAggggAACCCCAAAIIBAVqEpYi04UH6xD4VDg7LGtXdsrA9AKGaAIlish8UebODMnale2ydn9WCuUmddD3LxWWrk/KyIZ7pKOrXyZSumOw0u9ZigtXehN4jwACCCCAAAIIIIAAApULJA9LMdOFu7ffhX/7EznETOyg13W+KPnLp+TQli7pWNklAyklj+L1nEyN9UvvA+3S0bVdMrOlvihWjX4leGZJr2vrPbJ+36TkKwlfersN79Xsdmq06JXDLxvW+ovUF9KqZ5XUM0u8EEAAAQQQQAABBBBAIH2B5GFpMJv46IHb8EqNzDglqgkX1nRukr7XJmUurQGl68ek94FO2fzcqIyfT2nYR9W3OCkDnd2y9cApyZXKXom1ohuqwKSeX/r636+zQtPszIy4PypEbX7icRne92LsNOPRElmCAAIIIIAAAggggAAClQokC0uVluptb48qJZ7YwduPN0pAjRplfnjUeo5J3W6nAtTPfjrOaBLdAwEEEEAAAQQQQACBGggscliqQQs4BAIIIIAAAggggAACCCCwCAKEpUVApUgEEEAAAQQQQAABBBCofwHCUv2fQ1qAAAIIIIAAAggggAACiyBAWFoEVIpEAAEEEEAAAQQQQACB+hcgLNX/OaQFCCCAAAIIIIAAAgggsAgChKVFQKVIBBBAAAEEEEAAAQQQqH8BwlL9n0NagAACCCCAAAIIIIAAAosgUDYsfXDxlrzyyHH5p78+zA8G9AH6AH2APkAfoA/QB+gD9AH6QN32AZVrVL5J+iobllSB06MXkpbHdggggAACCCCAAAIIIIDAshRQuUblm6SvsmFJjSjxQgABBBBAAAEEEEAAAQQaQaCSfENYaoQzThsQQAABBBBAAAEEEEAgkQBhKRETGyGAAAIIIIAAAggggECzCRCWmu2M014EEEAAAQQQQAABBBBIJEBYSsTERggggAACCCCAAAIIINBsAoSlZjvjtBcBBBBAAAEEEEAAAQQSCRCWEjGxEQIIIIAAAggggAACCDSbQGOGpesZ6e08KLlmO5u0FwEEEEAAAQQQQAABBFITWB5habpf2lpbyvz0SzZps1VY6slIPun2bIcAAggggAACCCCAAAIIhASWT1gaLBWFsjLQSlgKnTs+IoAAAggggAACCCCAwCIK1HdYSjQiFR2xGpheRFGKRgABBBBAAAEEEEAAgUUVuPfee+Wll16q+BhqH7Vv0ld9hyVTK+dzcqS7RdpWrZK1+2dMW7AMAQQQQAABBBBAAAEE6lhgenpa/uIv/qKiwKSCktpH7Zv01XBhae5oj2zdP2w9s3Ry/zrZc7aY1ILtEEAAAQQQQAABBBBAoE4EVOhZsWJFosCkgpLa9he/+EVFrVs+YSmNCR6uZqR3Y0bm1G81wUMxK3s29Ev2dkUmbIwAAggggAACCCCAAAJ1IOCGIPU77lVJqAqXsXzC0kIneMifkr6uHhm/LiL6bHhXM7K5e4jAFD7zfEYAAQQQQAABBBBAoAEE3MBkur1OLfvLv/zLRKNPJorGCEtWUOqSPdPOLXd6WBKR4vSQrO3ulwnmEjf1AZYhgAACCCCAAAIIIFDXAiowhZ9HWmhQUiB1H5YKs6Oy+YFuGTmvPZsUCkuqocXzw7L2vm7Zc4bEVNf/Eqg8AggggAACCCCAAAIGAT0wuUHpkUceMWyZfFFdh6W513vki13bZfyKc+td7HNPPZJRt+flJ2Vkwz3yxf+VFS1aJddiSwQQQAABBBBAAAEEEFi2Aiocqdvu1M9Cg5JqZF2HJbmZl/y84VwZRpa8reaLUiQpeRy8QQABBBBAAAEEEECgkQRUSEojKCmT5ROWYkeF3C+V7Zds0rNYKiwlLYPtEEAAAQQQQAABBBBAoKkFlk9YWuhsePppJCzpGrxHAAEEEEAAAQQQQACBKgSWR1iqouLsggACCCCAAAIIIIAAAggspgBhaTF1KRsBBBBAAAEEEEAAAQTqVoCwVLenjoojgAACCCCAAAIIIIDAYgoQlhZTl7IRQAABBBBAAAEEEECgbgUIS3V76qg4AggggAACCCCAAAIILKZAqmHplUeOy/TohcWsL2UjgAACCCCAAAIIIIAAAosuoHKNyjdJXyvKbfjBxVtWgSqB8YMBfYA+QB+gD9AH6AP0AfoAfYA+UK99QAUllW+SvsqGpaQFsR0CCCCAAAIIIIAAAggg0EgChKVGOpu0BQEEEEAAAQQQQAABBFITICylRklBCCCAAAIIIIAAAggg0EgChKVGOpu0BQEEEEAAAQQQQAABBFITICylRklBCCCAAAIIIIAAAggg0EgChKVGOpu0BQEEEEAAAQQQQAABBFITICylRklBCCCAAAIIIIAAAggg0EgChKVGOpu0BQEEEEAAAQQQQAABBFITICylRklBCCCAAAIIIIAAAggg0EgChKVGOpu0BQEEEEAAAQQQQAABBFITICylRklBCCCAAAIIIIAAAggg0EgChKVGOpu0BQEEEEAAAQQQQAABBFITICylRklBCCCAAAIIIIAAAggg0EgChKVGOpu0BQEEEEAAAQQQQAABBFITICylRklBCCCAAAIIIIAAAggg0EgChKVGOpu0BQEEEEAAAQQQQAABBFITICylRklBCCCAAAIIIIAAAggg0EgChKVGOpu0BQEEEEAAAQQQQAABBFITICylRklBCCCAAAIIIIAAAggg0EgChKVGOpu0BQEEEEAAAQQQQAABBFITICylRklBCCCAAAIIIIAAAggg0EgChKVGOpu0BQEEEEAAAQQQQAABBFITICylRklBCCCAAAIIIIAAAggg0EgChKVGOpu0BQEEEEAAAQQQQAABBFITICylRklBCCCAAAIIIIAAAggg0EgChKVGOpu0BQEEEEAAAQQQQAABBFITICylRklBCCCAAAIIIIAAAggg0EgChKVGOpu0BQEEEEAAAQQQQAABBFITICylRklBCCCAAAIIIIAAAggg0EgChKVGOpu0BQEEEEAAAQQQQAABBFITICylRklBCCCAAAIIIIAAAggg0EgChKVGOpu0BQEEEEAAAQQQQAABBFITICylRklBCCCAAAIIIIAAAggg0EgChKVGOpu0BQEEEEAAAQQQQAABBFITICylRklBCCCAAAIIIIAAAggg0EgChKVGOpu0BQEEEEAAAQQQQAABBFITICylRklBCCCAAAIIIIAAAggg0EgChKVGOpu0BQEEEEAAAQQQQAABBFITICylRklBCCCAAAIIIIAAAggg0EgChKVGOpu0BQEEEEAAAQQQQAABBFITICylRklBCCCAAAIIIIAAAggg0EgChKVGOpu0BQEEEEAAAQQQQAABBFITICylRklBCCCAAAIIIIAAAggg0EgCZcPS/KciH/9Z5Na/84MBfYA+QB+gD9AH6AP0AfoAfYA+UL99QOUalW+SvsqGJVXgHwlKhEX6AH2APkAfoA/QB+gD9AH6AH2gzvuAyjUq3yR9lQ1LJOf6Tc6cO84dfYA+QB+gD9AH6AP0AfoAfSDaBwhLdZ566dTRTo0JJvQB+gB9gD5AH6AP0AfoA2n0AcISYYlhYvoAfYA+QB+gD9AH6AP0AfoAfcDQBwhLBpQ0Uihl8NcM+gB9gD5AH6AP0AfoA/QB+kB99wHCEmGJvyLQB+gD9AH6AH2APkAfoA/QB+gDhj5AWDKg8BeA+v4LAOeP80cfoA/QB+gD9AH6AH2APpBGHyAsEZb4KwJ9gD5AH6AP0AfoA/QB+gB9gD5g6AOEJQNKGimUMvhrBn2APkAfoA/QB+gD9AH6AH2gvvsAYYmwxF8R6AP0AfoAfYA+QB+gD9AH6AP0AUMfICwZUPgLQH3/BYDzx/mjD9AH6AP0AfoAfYA+QB9Iow8QlghL/BWBPkAfoA/QB+gD9AH6AH2APkAfMPQBwpIBJY0UShn8NYM+QB+gD9AH6AP0AfoAfYA+UN99gLBEWOKvCPQB+gB9gD5AH6AP0AfoA/QB+oChDxCWDCj8BaC+/wLA+eP80QfoA/QB+gB9gD5AH6APpNEHCEuEJf6KQB+gD9AH6AP0AfoAfYA+QB+gDxj6AGHJgJJGCqUM/ppBH6AP0AfoA/QB+gB9gD5AH6jvPkBYIizxVwT6AH2APkAfoA/QB+gD9AH6AH3A0AcISwYU/gJQ338B4Pxx/ugD9AH6AH2APkAfoA/QB9LoA4QlwhJ/RaAP0AfoA/QB+gB9gD5AH6AP0AcMfaAuw9LeE3+Uvx14X/6Pf8jJ/9Z9wfpR79UytS6NFEkZ/DWCPkAfoA/QB+gD9AH6AH2APtDcfaCuwpIKQioU/YeHL5T8UdsQmpq7Y/MfNs4/fYA+QB+gD9AH6AP0AfrAQvtA3YSl9f98o2RAMgUotc9Cgdiff2T0AfoAfYA+QB+gD9AH6AP0gebsA3URluKC0v/+9d/J90/esn7UewJTc3Zi/uPFeacP0AfoA/QB+gB9gD5AH1iMPrDsw5K6nc4UgtSyH775sVd/9T5uu9rfkpeXVza0SN9vUuq0v+mXtg0ZyRkeOkunU2Rl6Mv98osbdn1zP9wiG8fmqhyVy8mBNZvk6HsiN7KjsmPPpOQ+DjtkZeDuLfJj53jl2jD3+hbp+F42Wp9FdwnXO/R5Ykge/t6kzKnzcuOU7Nh2zH5f6jx9OCdvjg3LY48Myekbdj9pa22R8M+GH+Sj7Q2X+5t+WfXiTPnt3P1+0y8dfZNyw/1c7ve7GdnwWEZmym3371npu7tffnFL91Ft65FX3tWXBd/nftAjidrpHT/lf1deucF6leuPrMeLPkAfoA/QB+gDzdMHvLBR5s2KMuuTX7BVeIFS6hmlX1+441VLvY8LS6qMyjt1VvoMF7HeRW2pPzY6AAASHElEQVTJ8FL6ou7NkR7ZVkkYqTAU5N44KN9c1ymfs+rfLn/z5U0y9PO5+Ivkt4dlw2E3HBXk6I5hUTm0cjO1j2p7v5x2zvONcxnZ9/PQhf97x2TDl4blzYR94c0XV8mGH4bKUPtW6FKqPerCve0FQyCLrWNBfvxkp/T9pug4FeVnO/TPQb/cz3fJw2u65OEvr5KvqIBl+Qat3PqZQoRVv1L9MbTOFNRVGV85qP1buDUjB3rCIUert/LdcUrrN3n52Y4t8soFbRvlc+uU7Gj1z7ndDtW2xQhL6+SV34WOH3uO2M7tU/ymL9AH6AP0AfoAfaC6PuCFjTJvliQslRpVUsFo1QtX5Xd/+P+sH/U+Liyp5bUdXSodlnI/75ev3N0induOyUwklOTl6I7t8mP9L/JJQ8HHc/LjbZ3SuS0jb16b80a3bvxuUgYeaZfOF7Laha/bYQryYy0c3VCjFaELby8gBi6Iy4TJcBl6uMwOy6qeY/ZI2XvHZOPd0ZEV/2JfhZKYUbqkLqUuptXoiVvXCsKScvqK2wa3/Gsn5Jtf7pfTH7q20d/BIFRZWPJNouUm+Q/g6RdapG9C37cop19YJQ97QVlfJ6Lq+tioG6LtdWpZx7Oh0SllqJ9fy0O1rV0G3vTLVMf3+1Lo/ec75StrtsuP37O3L7mte77U78hx/eMlMWEbvOgD9AH6AH2APkAfKNUHymQkb/WShCU1FXipAFTJOlVWKYiFrEt2YRf6y/uFY7Lt71qk45GD8qZ++9LH6pamLjkwo3XchKHAupDtyTgBTF2sauV8eEp23N0tB0KjAjfeHJJO94Lz45wc2GSPKqmySl+cq7AUapN1kaxGWEqPKNz4110VjOLMySuPOeUpB/1C2XqvRs66Ahfayc+lHfhUO1V7E48sfZiVvi/3GEc41C2Dn/POgXYOnUCljuPfelZ9WLKCj3ebpzLql19EgrfIrY+LMndhRn72gyHZ8KV2+Zv/eo9l2PHlITvUqeC6ZlSybuBT27+bk9Njo/LNh1vkc//1C9KhnD+/SY6qEZ0bJ+SbrbvkZ3qf1cOvW441whgTco0WUavoeVRepftWdJ8k5bINbvQB+gB9gD5AH6APmPuAl4bKvFmSsFTqFjwVlFb+z/fkb3bNWT/37HivZLCq7FY8dVEW+st35CK9pcTFtXpuJ8FF3Y1JGeg7EXzORV143t0vp/ULXxUSvrRLXnl7Tm7oy70LU3VRrELWJjl6zT3RKggE66BuZwvchvVhVgY2dctXrLCkRhnWebeVVR+WRE6/oIU0vY5VXSTbocwYBIwjGm77K/udOCx9OCNDj3R5TtH/sBTl9Pe65CvPntKe1TL3p77fmJerQOgHKrsd1vn4gTYKZuqP3jL3vOfllU2dsnHHkBwYHZLHvjTk9CsVaNvlm68X5Na/q766Soay9nFOf+8L8vCWftn3g4Oy7W/sZ89UG7MHu53no9S+Lc6+jrHqn5FRObttpQJ3MDgmOV+qTLdtSbZnm2j/xAQT+gB9gD5AH6APVNIHymQkb/WShCX1hbOlRo/+r//nmlfBtS9eL7mtKqsSmMi21u1appEUU4eLBpVIeYYQobZ5c88q6QhfeFphqUe+2fMF6bj7C7LhhYyc1m/TU2W9OSQdT2rByxoBCNV3ol/a3G0+npNXNm2So79xbqGaOSgbvuffpmeFB+/i2w6OwQtfe1QmMNLj1Nu6sHdu95p7fbts+GHwVq7T32s3P4NkMlHPN9095D0DFXCsdVh675T0fblLtr0ebE+gTlYb7MD0uUeG5XRgEgs1AtQun9umnSdTmw3LLFNvJEkFUn3URoWI0LkOl+FM7uDWVQ8qkRCt9lW2+uQOWiBSo2eBZ5mcdXOv98u+c+6/B0NYUtuF+lTws6ENH87IPtXv1X6f/4L8zd2EJfcc8tvta/ymL9AH6AP0AfrA4vUBL2yUeUNYmhmVr+gXj+GLUf3zx5PWqI6aEa6izntrUnbcvUqG3g7tpy4y3VvlruXkZyNb5Ct3t8tXnh6V084x1MVvYNTIVF+tnBtvDsu2H8zZF8Vu2Vobwhfn0XbYIz7uRA63/v/2zugljiyLwy/7B23mRREMgQkEkpf0i3Gg6bAILoKQheCAEEgjhG4Y2gcxsIlhE4SIIM4QsgRkgxIiYhACDQMNwvTLCDNIAq4NYYVdznJu962+dbuqbreR7V77E0J1UtVVdX/3K3N/dc4995efZMqavN1K615OZVMNWRTtarYrPtD32urcg7lmliHK2uefJ/B3bW9ndMS5t5MjWZuflacHp83CElmD/pYOtVclWXCN4scVWXxUkvLjFSlvnzVT/1LPEzcOajBds9qZ+hk/3u8vNUTNSFKzTa5Z0kIZox4DaohilfZahijqEzf6afatm2IRe1F6XoJZ8vpA7yF2DW+/XssYazun6viDlG+2o2B+G/m7w2uCluiDPjAAAzAAAzDQOwMBjxTt7otZCqXhFXqILPWWhpcgpGM0gqCpcUiLhmQMYg6e5OLRIXts0rWPa7L2cD6a2xQb/H4RSSy3nXSeFMOh53MH551trkrZrWinA25b3lujQd+/lfp+RfIJRSX+L82S7Qtv65sYU6HPmsbYsZ9k7cGKHOxWTArf1qNivHS6MRzp1fi0EINNlevsiwReY9fuTAuN8XL8VhZ0nlX0nWaaXqz/Y/en0Z7lqNT8iRrzm7ckHytjrlG07Mp1JkKVqFW7ParvPVsJ0ZilzhTF3vVon5/vogUMwAAMwAAMwEAWA5EbCnzoi1kKFXgo/PX36LZDaXhfW+BBB5fflD90FSk6enW/ne4WDUCzQdTqajlNMUoqi5xkcrzzxga/X5rzSha2bVnr5rVNG2KloFvpVl5UQYExx3pRj9jgWdP83O/tV5x5NkfyIp+T3MS8vPaiSnpu1yz5EY8OWFPMnDkua5+nT8d5vf2mvYGBe+c5mnNoYhHEmKlo93lt476Y/thXs6RzzNr7zHlTvte8plYE1PSzZrQmnrrmzK0bm5VNPz1T23m4Lvn8umOGmv3rz4uK2qcRzmul+LpJWfdnUj49M2fKiQfW0so6p+0fJw1vdKIoy+VphzNPQ/sdtl39nor6G73QCwZgAAZgAAZSGYjMRuBDX8xSqHR4L2bpq0qHa5W4/IgsvIubj8TBRqMmy7e7PLYF5vHP6zIzlkufC6ODSteYJACtFeaiuU4mnc8fqDYH2m4qlrn/FMOh5iFmjvxrVlckZyNJpgDAZNMMmOPOZOfRt5J77qzp43zfNUvu50Q9vfur/b0k+RsjzbkvYyMyOlaQxXdu4YszqT6flqkntYQy6emD63OZJdXgvrcQ7W6lo9z2yUlVlh+2SqWbyFLrPrRtniGNjFDMuFVl8Zozb6s138w11vXtkkmDTFpwtvay0FEeXHXvYKHVR8fvSnLVKw+u+oRS5tz+Mzz6zH6uy9pCQa67peLzJdn8qIUm0vumvU/TOlPu+3NdXsxrVcRJuTO/LtWM8u3t83VzTY5BLxiAARiAARgYZgYCHina3RezpB2TlYp3t8vI0tem4NXWZzPLQbcB0opyORn1199JGwg2TuVgoyi5KzlZ2E5YdNV+rwuzdPKbrldUkq3PInq//lo4NV0f53bCYrOeGbFtCZkl3a+DbVMG/MofZXRiRcx8lcYn2XqUk9yjZVnIV2SnNWjde16J0rbcgXp1dVJuld+3FmlN+GWkKX22tLVGML5bbhdNqK3L1Jgu9Doio24xBa3yNzEud5yCFbZdaduezZKWD7+d60iNs7pkXSfRhGZFWT6uyC0/IqjXny7K5uGZ1F4VZSpWfc/VUVPw/JLxGqmKr4HUvt9mCp7/YkAjgIkLA1tG3e2v72VBXxh4kc29pXGZe9U2tsf/KMk3M0V5MDEiV6dX2/3qnsv5bBgeS45W1jfmpbzbepkRW2TZ1YLP7X5GC7SAARiAARiAgW4YiNxQ4EPfzFJWdOnuk+7S8M4dVWp8kp2lgly1a9I4A7cOcXUO0YOcGbQfhN5qfz6SvY2KzNzQQeKK7CSlTrnX6sYsfRGp/Thv3trrwNPew/FhVV48nJTR20V5nZTidx6zZCJtfuRKU/p08dtv5d7LuonqHO9WJKdzYU40Mtdem6e27qRSJUUbYqWznUISxji1zZIxhVrdr3EqO0vFeAqjMTMjMqNFLFwtUz73ZJZMOxOq4jU+yeZ9Lx3Nu16qmUo1S2pexjujmp+P5ODHkty5kZPrEyXZ3K9LPYk7NVp+9OtY19xK6D+9VzXdOhfNTRNs1OVpPrtdRmPl+mVR7oyNRwy42u8t5aS83YoiNU5lq3yrGa1qnMrek4KM2rWcXM0aZ1KvvZen30+aKOLyx+TorpqlqDCKmqXV5Kimez985j9JGIABGIABGICBEAMBjxTt7ptZ0gb8+W/HiWXBdZ6S/Umbs6TfDYmQvP9M9h4XZObxB2e9nDSgTmWnXJCpro7V8uCTkp9fla1al+lHXZqljnb89kbmbhRk7llGG1LMkkYSEiMgOpA9/Enm/KiNVov7oSKbP8cHsxr1MJX7HrfLknczsb/dlpos35wVOy/IpOFda87TuZovJRtAO9iursrMDx/i61jZfefansres2m5PlGUNbedOifIpNNphcK3Us84t5olM1dI+zQtBa/17805Raey8+yNVBtnUn1Vknsz92VmviSLL9/IwWFL68aZ1D6+kRdLFZmbmZV7sxV53aqSWH05LWWbPqql4825x2XqeXKa4tF2SWbWWwZTC5V02a6TL2oUc4brVPP/y3sp2zLgV8Yl95e2qdf+rq0XZXHf5UcjtZNy/e68LG5Us5/Dk7qs2TQ877xtltKeX/4djWAABmAABmAABpIZsF4jtO2rWdLOSzJMf3r6uzzY+GT+6Gd/TabzG6VksYAIXU5O3ME8evBMwAAMwAAMwAAMwMBlZiBkkuz+vpsl7QRNp8uaw2TNkh5z7tS7jKjAZQaBtvGLDgZgAAZgAAZgAAZgAAbiDFgzFNoOhFmynadGSEuBqyn6Q+HQ/NHP+m+YpHgHW83YogsMwAAMwAAMwAAMwAAM9MZAyCTZ/QNllujk3joZvdALBmAABmAABmAABmAABnpnwJqh0BazRHreOQtl9A4lDzKawQAMwAAMwAAMwAAMDAIDIZNk92OWMEuYJRiAARiAARiAARiAARgYKgasGQptMUs8GEP1YAzCmwzugTdqMAADMAADMAADMNBfBkImye7HLGGWMEswAAMwAAMwAAMwAAMwMFQMWDMU2mKWeDCG6sHgLU5/3+KgP/rDAAzAAAzAAAwMAgMhk2T3Y5YwS5glGIABGIABGIABGIABGBgqBqwZCm0xSzwYQ/VgDMKbDO6BN2owAAMwAAMwAAMw0F8GQibJ7scsYZYwSzAAAzAAAzAAAzAAAzAwVAxYMxTaYpZ4MIbqweAtTn/f4qA/+sMADMAADMAADAwCAyGTZPdjljBLmCUYgAEYgAEYgAEYgAEYGCoGrBkKbTFLPBhD9WAMwpsM7oE3ajAAAzAAAzAAAzDQXwZCJsnuxyxhljBLMAADMAADMAADMAADMDBUDFgzFNpilngwhurB4C1Of9/ioD/6wwAMwAAMwAAMDAIDIZNk92OWMEuYJRiAARiAARiAARiAARgYKgasGQptMUs8GEP1YAzCmwzugTdqMAADMAADMAADMNBfBkImye7HLGGWMEswAAMwAAMwAAMwAAMwMFQMWDMU2mKWeDCG6sHgLU5/3+KgP/rDAAzAAAzAAAwMAgMhk2T3Y5YwS5glGIABGIABGIABGIABGBgqBqwZCm2DZqnxL5F/As9QwTMIbp974K0TDMAADMAADMAADMDARTOgvkb9Tbc/QbP07/80T3jRN8r5gB8GYAAGYAAGYAAGYAAGYOB/yYAaJfU33f4EzVK3J+I4FEABFEABFEABFEABFEABFLhMCmCWLlNv0hYUQAEUQAEUQAEUQAEUQIELUwCzdGFSciIUQAEUQAEUQAEUQAEUQIHLpABm6TL1Jm1BARRAARRAARRAARRAARS4MAUwSxcmJSdCARRAARRAARRAARRAARS4TApgli5Tb9IWFEABFEABFEABFEABFECBC1MAs3RhUnIiFEABFEABFEABFEABFECBy6QAZuky9SZtQQEUQAEUQAEUQAEUQAEUuDAF/guU5ZnkUatslwAAAABJRU5ErkJggg==;imageBorder=#000000;" vertex="1" parent="1">
          <mxGeometry x="300" y="400" width="466.64" height="261.27" as="geometry" />
        </mxCell>
        <mxCell id="fsJKned1fW-X0qUgyeQ3-6" value="" style="rounded=0;whiteSpace=wrap;html=1;fillColor=none;strokeColor=#FF0000;strokeWidth=4;" vertex="1" parent="1">
          <mxGeometry x="60" y="80" width="120" height="20" as="geometry" />
        </mxCell>
        <mxCell id="fsJKned1fW-X0qUgyeQ3-7" value="" style="rounded=0;whiteSpace=wrap;html=1;fillColor=none;strokeColor=#FF0000;strokeWidth=4;" vertex="1" parent="1">
          <mxGeometry x="300" y="60" width="150" height="30" as="geometry" />
        </mxCell>
        <mxCell id="fsJKned1fW-X0qUgyeQ3-8" value="" style="rounded=0;whiteSpace=wrap;html=1;fillColor=none;strokeColor=#FF0000;strokeWidth=4;" vertex="1" parent="1">
          <mxGeometry x="410" y="300" width="90" height="40" as="geometry" />
        </mxCell>
        <mxCell id="fsJKned1fW-X0qUgyeQ3-9" value="" style="rounded=0;whiteSpace=wrap;html=1;fillColor=none;strokeColor=#FF0000;strokeWidth=4;" vertex="1" parent="1">
          <mxGeometry x="300" y="460" width="470" height="140" as="geometry" />
        </mxCell>
        <mxCell id="fsJKned1fW-X0qUgyeQ3-10" value="" style="shape=flexArrow;endArrow=classic;html=1;strokeColor=none;fillColor=#0000FF;" edge="1" parent="1">
          <mxGeometry width="50" height="50" relative="1" as="geometry">
            <mxPoint x="230" y="80" as="sourcePoint" />
            <mxPoint x="290" y="80" as="targetPoint" />
          </mxGeometry>
        </mxCell>
        <mxCell id="fsJKned1fW-X0qUgyeQ3-11" value="" style="shape=flexArrow;endArrow=classic;html=1;strokeColor=none;fillColor=#0000FF;" edge="1" parent="1">
          <mxGeometry width="50" height="50" relative="1" as="geometry">
            <mxPoint x="520" y="110" as="sourcePoint" />
            <mxPoint x="520" y="160" as="targetPoint" />
          </mxGeometry>
        </mxCell>
        <mxCell id="fsJKned1fW-X0qUgyeQ3-12" value="" style="shape=flexArrow;endArrow=classic;html=1;strokeColor=none;fillColor=#0000FF;" edge="1" parent="1">
          <mxGeometry width="50" height="50" relative="1" as="geometry">
            <mxPoint x="520" y="350" as="sourcePoint" />
            <mxPoint x="520" y="390" as="targetPoint" />
          </mxGeometry>
        </mxCell>
      </root>
    </mxGraphModel>
  </diagram>
</mxfile>
